<svg width="18" height="18" viewBox="0 0 18 18" fill="none" xmlns="http://www.w3.org/2000/svg">
<path d="M4.83335 2.33366C4.83335 1.89163 5.00895 1.46771 5.32151 1.15515C5.63407 0.842587 6.05799 0.666992 6.50002 0.666992H11.5C11.942 0.666992 12.366 0.842587 12.6785 1.15515C12.9911 1.46771 13.1667 1.89163 13.1667 2.33366V4.00033H16.5C16.721 4.00033 16.933 4.08812 17.0893 4.2444C17.2456 4.40068 17.3334 4.61264 17.3334 4.83366C17.3334 5.05467 17.2456 5.26663 17.0893 5.42291C16.933 5.57919 16.721 5.66699 16.5 5.66699H15.6092L14.8867 15.7853C14.8568 16.2058 14.6686 16.5993 14.3601 16.8866C14.0516 17.1739 13.6457 17.3337 13.2242 17.3337H4.77502C4.35347 17.3337 3.94758 17.1739 3.63909 16.8866C3.33061 16.5993 3.14245 16.2058 3.11252 15.7853L2.39169 5.66699H1.50002C1.27901 5.66699 1.06704 5.57919 0.910765 5.42291C0.754484 5.26663 0.666687 5.05467 0.666687 4.83366C0.666687 4.61264 0.754484 4.40068 0.910765 4.2444C1.06704 4.08812 1.27901 4.00033 1.50002 4.00033H4.83335V2.33366ZM6.50002 4.00033H11.5V2.33366H6.50002V4.00033ZM4.06169 5.66699L4.77585 15.667H13.225L13.9392 5.66699H4.06169ZM7.33335 7.33366C7.55437 7.33366 7.76633 7.42146 7.92261 7.57774C8.07889 7.73402 8.16669 7.94598 8.16669 8.16699V13.167C8.16669 13.388 8.07889 13.6 7.92261 13.7562C7.76633 13.9125 7.55437 14.0003 7.33335 14.0003C7.11234 14.0003 6.90038 13.9125 6.7441 13.7562C6.58782 13.6 6.50002 13.388 6.50002 13.167V8.16699C6.50002 7.94598 6.58782 7.73402 6.7441 7.57774C6.90038 7.42146 7.11234 7.33366 7.33335 7.33366ZM10.6667 7.33366C10.8877 7.33366 11.0997 7.42146 11.2559 7.57774C11.4122 7.73402 11.5 7.94598 11.5 8.16699V13.167C11.5 13.388 11.4122 13.6 11.2559 13.7562C11.0997 13.9125 10.8877 14.0003 10.6667 14.0003C10.4457 14.0003 10.2337 13.9125 10.0774 13.7562C9.92115 13.6 9.83335 13.388 9.83335 13.167V8.16699C9.83335 7.94598 9.92115 7.73402 10.0774 7.57774C10.2337 7.42146 10.4457 7.33366 10.6667 7.33366Z" fill="#858585"/>
</svg>
