<svg width="81" height="72" viewBox="0 0 81 72" fill="none" xmlns="http://www.w3.org/2000/svg">
<g opacity="0.5">
<path d="M31.4168 30.334C31.4168 29.472 31.7592 28.6454 32.3687 28.0359C32.9782 27.4264 33.8049 27.084 34.6668 27.084H69.3335C70.1954 27.084 71.0221 27.4264 71.6316 28.0359C72.2411 28.6454 72.5835 29.472 72.5835 30.334C72.5835 31.1959 72.2411 32.0226 71.6316 32.6321C71.0221 33.2416 70.1954 33.584 69.3335 33.584H34.6668C33.8049 33.584 32.9782 33.2416 32.3687 32.6321C31.7592 32.0226 31.4168 31.1959 31.4168 30.334ZM34.6668 42.2507C33.8049 42.2507 32.9782 42.5931 32.3687 43.2026C31.7592 43.812 31.4168 44.6387 31.4168 45.5007C31.4168 46.3626 31.7592 47.1893 32.3687 47.7987C32.9782 48.4082 33.8049 48.7507 34.6668 48.7507H56.3335C57.1954 48.7507 58.0221 48.4082 58.6316 47.7987C59.2411 47.1893 59.5835 46.3626 59.5835 45.5007C59.5835 44.6387 59.2411 43.812 58.6316 43.2026C58.0221 42.5931 57.1954 42.2507 56.3335 42.2507H34.6668Z" fill="#F0F0F0"/>
<path fill-rule="evenodd" clip-rule="evenodd" d="M43.0948 5.41602C37.1712 5.41602 32.3915 5.41602 28.6345 5.92302C24.7345 6.44302 21.4498 7.56968 18.8412 10.174C16.2325 12.7827 15.1145 16.0673 14.5902 19.9673C14.0832 23.7243 14.0832 28.504 14.0832 34.4277V69.571C14.0832 75.4947 14.0832 80.2744 14.5902 84.0313C15.1102 87.9314 16.2369 91.216 18.8412 93.8247C21.4498 96.4334 24.7345 97.5514 28.6345 98.08C32.3915 98.5827 37.1712 98.5827 43.0948 98.5827H60.9048C66.8285 98.5827 71.6082 98.5827 75.3652 98.08C79.2652 97.5514 82.5499 96.4334 85.1585 93.8247C87.7672 91.216 88.8852 87.9314 89.4138 84.0313C89.9165 80.2744 89.9165 75.4947 89.9165 69.571V34.4277C89.9165 28.504 89.9165 23.7243 89.4138 19.9673C88.8852 16.0673 87.7672 12.7827 85.1585 10.174C82.5499 7.56535 79.2652 6.44735 75.3652 5.92302C71.6082 5.41602 66.8285 5.41602 60.9048 5.41602H43.0948ZM23.4432 14.7717C24.6435 13.5713 26.3248 12.7913 29.5098 12.3623C32.7772 11.9247 37.1192 11.916 43.3375 11.916H60.6708C66.8892 11.916 71.2268 11.9247 74.5028 12.3623C77.6835 12.7913 79.3648 13.5757 80.5652 14.7717C81.7655 15.972 82.5455 17.6533 82.9745 20.8383C83.4122 24.1057 83.4208 28.4477 83.4208 34.666V66.0827H33.7218C30.1772 66.0827 27.7592 66.0827 25.6835 66.6374C23.8598 67.1305 22.1345 67.9337 20.5832 69.012V34.666C20.5832 28.4477 20.5919 24.1057 21.0295 20.834C21.4585 17.6533 22.2472 15.972 23.4432 14.7717ZM20.7002 79.0784C20.7652 80.6124 20.8692 81.96 21.0295 83.1647C21.4585 86.3454 22.2428 88.0267 23.4388 89.227C24.6392 90.4274 26.3205 91.2074 29.5055 91.6364C32.7728 92.074 37.1148 92.0827 43.3332 92.0827H60.6665C66.8848 92.0827 71.2225 92.074 74.4985 91.6364C77.6792 91.2074 79.3605 90.423 80.5608 89.227C81.7612 88.0267 82.5412 86.3454 82.9702 83.1604C83.3298 80.4954 83.3992 77.1153 83.4122 72.5827H34.2245C29.9865 72.5827 28.5045 72.6087 27.3648 72.9164C25.8375 73.326 24.4328 74.101 23.2717 75.1745C22.1107 76.248 21.2281 77.5878 20.7002 79.0784Z" fill="#F0F0F0"/>
</g>
</svg>
