<svg width="78" height="83" viewBox="0 0 78 83" fill="none" xmlns="http://www.w3.org/2000/svg">
<g clip-path="url(#clip0_1469_2212)">
<path d="M61.1591 19.1719H55.3534C54.4366 19.1719 53.6915 19.917 53.6915 20.8338C53.6915 21.7507 54.4366 22.4958 55.3534 22.4958H61.1591C62.6853 22.4958 63.929 23.7395 63.929 25.2657V30.678H14.0714V25.2657C14.0714 23.7395 15.315 22.4958 16.8412 22.4958H22.6469C23.5638 22.4958 24.3089 21.7507 24.3089 20.8338C24.3089 19.917 23.5638 19.1719 22.6469 19.1719H16.8412C13.4786 19.1719 10.7474 21.903 10.7474 25.2657V65.152C10.7474 68.5147 13.4786 71.2458 16.8412 71.2458H61.1594C64.522 71.2458 67.2532 68.5147 67.2532 65.152V25.2657C67.2532 21.903 64.5218 19.1719 61.1591 19.1719ZM63.929 65.1522C63.929 66.6783 62.6853 67.922 61.1591 67.922H16.8409C15.3148 67.922 14.0711 66.6783 14.0711 65.1522V34.0018H63.9287L63.929 65.1522Z" fill="#3D3D3D"/>
<path d="M35.9424 19.1719C35.0255 19.1719 34.2804 19.917 34.2804 20.8338C34.2804 21.7507 35.0255 22.4958 35.9424 22.4958H42.0583C42.9751 22.4958 43.7202 21.7507 43.7202 20.8338C43.7202 19.917 42.9751 19.1719 42.0583 19.1719H35.9424Z" fill="#3D3D3D"/>
<path d="M47.0383 16.4022V25.2658C47.0383 26.1827 47.7834 26.9278 48.7002 26.9278C49.6171 26.9278 50.3622 26.1827 50.3622 25.2658V16.4022C50.3622 15.4853 49.6171 14.7402 48.7002 14.7402C47.7834 14.7402 47.0383 15.4853 47.0383 16.4022Z" fill="#3D3D3D"/>
<path d="M27.6382 16.4022V25.2658C27.6382 26.1827 28.3834 26.9278 29.3002 26.9278C30.2171 26.9278 30.9622 26.1827 30.9622 25.2658V16.4022C30.9622 15.4853 30.2171 14.7402 29.3002 14.7402C28.3834 14.7402 27.6382 15.4853 27.6382 16.4022Z" fill="#3D3D3D"/>
<path d="M24.4445 41.2067C24.4445 44.1622 20.0127 44.1622 20.0127 41.2067C20.0127 38.254 24.4445 38.254 24.4445 41.2067Z" fill="#3D3D3D"/>
<path d="M35.6262 41.2067C35.6262 44.1622 31.1943 44.1622 31.1943 41.2067C31.1943 38.254 35.6262 38.254 35.6262 41.2067Z" fill="#3D3D3D"/>
<path d="M46.8057 41.2067C46.8057 44.1622 42.3738 44.1622 42.3738 41.2067C42.3738 38.254 46.8057 38.254 46.8057 41.2067Z" fill="#3D3D3D"/>
<path d="M57.9873 41.2067C57.9873 44.1622 53.5555 44.1622 53.5555 41.2067C53.5555 38.254 57.9873 38.254 57.9873 41.2067Z" fill="#3D3D3D"/>
<path d="M24.4445 50.9608C24.4445 53.9135 20.0127 53.9135 20.0127 50.9608C20.0127 48.0053 24.4445 48.0053 24.4445 50.9608Z" fill="#3D3D3D"/>
<path d="M35.6262 50.9608C35.6262 53.9135 31.1943 53.9135 31.1943 50.9608C31.1943 48.0053 35.6262 48.0053 35.6262 50.9608Z" fill="#3D3D3D"/>
<path d="M46.8057 50.9608C46.8057 53.9135 42.3738 53.9135 42.3738 50.9608C42.3738 48.0053 46.8057 48.0053 46.8057 50.9608Z" fill="#3D3D3D"/>
<path d="M57.9873 50.9608C57.9873 53.9135 53.5555 53.9135 53.5555 50.9608C53.5555 48.0053 57.9873 48.0053 57.9873 50.9608Z" fill="#3D3D3D"/>
<path d="M24.4445 60.7145C24.4445 63.67 20.0127 63.67 20.0127 60.7145C20.0127 57.7618 24.4445 57.7618 24.4445 60.7145Z" fill="#3D3D3D"/>
<path d="M35.6262 60.7145C35.6262 63.67 31.1943 63.67 31.1943 60.7145C31.1943 57.7618 35.6262 57.7618 35.6262 60.7145Z" fill="#3D3D3D"/>
<path d="M46.8057 60.7145C46.8057 63.67 42.3738 63.67 42.3738 60.7145C42.3738 57.7618 46.8057 57.7618 46.8057 60.7145Z" fill="#3D3D3D"/>
<path d="M57.9873 60.7145C57.9873 63.67 53.5555 63.67 53.5555 60.7145C53.5555 57.7618 57.9873 57.7618 57.9873 60.7145Z" fill="#3D3D3D"/>
</g>
<defs>
<clipPath id="clip0_1469_2212">
<rect width="78" height="82.2545" fill="white" transform="translate(0 0.447266)"/>
</clipPath>
</defs>
</svg>
