<svg width="24" height="24" viewBox="0 0 24 24" fill="none" xmlns="http://www.w3.org/2000/svg">
<path d="M3.54785 20.9399H20.4479C20.5805 20.9399 20.7076 20.8873 20.8014 20.7935C20.8952 20.6997 20.9479 20.5725 20.9479 20.4399C20.9479 20.3073 20.8952 20.1802 20.8014 20.0864C20.7076 19.9926 20.5805 19.9399 20.4479 19.9399H3.54785C3.41524 19.9399 3.28807 19.9926 3.1943 20.0864C3.10053 20.1802 3.04785 20.3073 3.04785 20.4399C3.04785 20.5725 3.10053 20.6997 3.1943 20.7935C3.28807 20.8873 3.41524 20.9399 3.54785 20.9399ZM9.70985 17.1819C10.132 17.0632 10.5173 16.8396 10.8299 16.5319L20.3699 6.99194C20.6966 6.66395 20.88 6.21988 20.88 5.75694C20.88 5.29401 20.6966 4.84993 20.3699 4.52194L19.4299 3.59194C19.097 3.27465 18.6547 3.09766 18.1949 3.09766C17.735 3.09766 17.2927 3.27465 16.9599 3.59194L7.41985 13.1219C7.11222 13.4329 6.89154 13.819 6.77985 14.2419L6.03985 17.0019C6.00506 17.128 6.00431 17.2611 6.03769 17.3876C6.07107 17.5141 6.13737 17.6294 6.22985 17.7219C6.37157 17.8608 6.56144 17.9396 6.75985 17.9419L9.70985 17.1819ZM10.1199 15.8219C9.93544 16.0096 9.70406 16.1442 9.44985 16.2119L8.47985 16.4719L7.47985 15.4719L7.73985 14.5019C7.8089 14.2483 7.94339 14.0172 8.12985 13.8319L8.50985 13.4619L10.4999 15.4519L10.1199 15.8219ZM11.2099 14.7419L9.21985 12.7519L15.9499 6.02194L17.9399 8.01194L11.2099 14.7419ZM19.6599 6.29194L18.6499 7.30194L16.6599 5.31194L17.6699 4.29194C17.8105 4.15149 18.0011 4.0726 18.1999 4.0726C18.3986 4.0726 18.5892 4.15149 18.7299 4.29194L19.6599 5.23194C19.7993 5.37308 19.8776 5.56351 19.8776 5.76194C19.8776 5.96037 19.7993 6.1508 19.6599 6.29194Z" fill="#676767"/>
</svg>
