<svg width="92" height="86" viewBox="0 0 92 86" fill="none" xmlns="http://www.w3.org/2000/svg">
<g clip-path="url(#clip0_1469_2147)">
<path d="M14.8725 29.6637H17.8251H17.8434H36.4912L33.4655 33.896C33.2278 34.2434 33.1821 34.6822 33.3741 35.0661C33.5661 35.4409 33.9409 35.6877 34.3613 35.706L41.7473 35.9893C41.7473 35.9893 41.7748 35.9893 41.793 35.9893C42.3232 35.9893 42.7803 35.6237 42.9174 35.1026L44.2337 29.6454H44.38L45.6871 35.1118C45.8151 35.6328 46.2722 35.9985 46.8115 35.9985C46.8115 35.9985 46.8389 35.9985 46.8572 35.9985L54.2432 35.7151C54.6637 35.6968 55.0385 35.45 55.2304 35.0752C55.4133 34.6913 55.3767 34.2434 55.1299 33.896L52.1042 29.6637H66.8945H66.9128H73.7137C74.3536 29.6637 74.8564 29.1427 74.8564 28.5119V19.4897C74.8564 18.8589 74.3445 18.3379 73.7137 18.3379H47.9907H40.6047H14.8725C14.2327 18.3379 13.7299 18.8589 13.7299 19.4897V28.5028C13.7299 29.1427 14.2418 29.6637 14.8725 29.6637ZM72.5619 20.6414V27.351H68.1834C68.6221 23.9962 70.5326 21.4733 71.2639 20.6414H72.5619ZM49.1333 20.6414H68.3845C67.3515 22.168 66.1906 24.499 65.8798 27.351H49.1333V20.6414ZM49.2796 29.6637L52.0128 33.4938L47.7073 33.6583L46.7384 29.6637H47.9907H49.2796ZM41.7565 20.6414H46.8389V27.351H41.7565V20.6414ZM41.857 29.6637L40.8881 33.6583L36.5826 33.4938L39.3067 29.6637H40.6047H41.857ZM39.4621 20.6414V27.351H19.114C19.5619 24.0054 21.4724 21.4824 22.1946 20.6414H39.4621ZM16.0243 20.6414H19.3151C18.2822 22.168 17.1213 24.499 16.8013 27.3601H16.0243V20.6414Z" fill="#3D3D3D"/>
<path d="M71.6113 61.0073C74.5821 59.2613 76.6114 56.0619 76.6114 52.3872C76.6114 46.8386 72.1049 42.332 66.5745 42.332C61.0442 42.332 56.5376 46.8294 56.5376 52.3872C56.5376 56.0619 58.5669 59.2613 61.5469 61.0073C57.991 62.3053 55.0568 64.9654 53.4205 68.4847C52.2047 67.5066 50.8336 66.7204 49.3436 66.1628C52.3144 64.4169 54.3346 61.2175 54.3346 57.5428C54.3346 52.0124 49.8281 47.5059 44.2977 47.5059C38.7674 47.5059 34.2608 52.0033 34.2608 57.5428C34.2608 61.2175 36.281 64.4169 39.2518 66.1628C37.7618 66.7204 36.3815 67.5066 35.1658 68.4847C33.5295 64.9654 30.6044 62.3053 27.0485 61.0073C30.0285 59.2613 32.0487 56.0802 32.0487 52.3872C32.0487 46.8386 27.5512 42.332 22.0117 42.332C16.4722 42.332 11.9748 46.8294 11.9748 52.3872C11.9748 56.0619 14.0042 59.2613 16.975 61.0073C11.4446 63.0549 7.48656 68.375 7.48656 74.6092C7.48656 75.2491 7.99846 75.7701 8.62919 75.7701H30.3393C29.9736 77.0407 29.7634 78.3936 29.7634 79.7831C29.7634 80.4047 30.2753 80.9257 30.906 80.9257H57.6803C58.311 80.9257 58.8229 80.4047 58.8229 79.7831C58.8229 78.3936 58.6126 77.0316 58.247 75.7701H79.9479C80.5878 75.7701 81.0997 75.2491 81.0997 74.6092C81.1088 68.375 77.1416 63.0549 71.6113 61.0073ZM58.832 52.3781C58.832 48.1092 62.2965 44.6264 66.5745 44.6264C70.8434 44.6264 74.3079 48.1092 74.3079 52.3781C74.3079 56.5738 70.9348 59.9835 66.7482 60.0932C66.6842 60.0932 66.6294 60.0749 66.5654 60.0749C66.5105 60.0749 66.4648 60.0932 66.41 60.0932C62.2234 60.0017 58.832 56.5921 58.832 52.3781ZM36.5552 57.5428C36.5552 53.2739 40.0288 49.7912 44.2977 49.7912C48.5666 49.7912 52.0402 53.2739 52.0402 57.5428C52.0402 61.7386 48.6854 65.1482 44.5079 65.2579C44.444 65.2579 44.3708 65.2579 44.3068 65.2579C44.2429 65.2579 44.1697 65.2579 44.1057 65.2579C39.9191 65.1482 36.5552 61.7386 36.5552 57.5428ZM14.2875 52.3781C14.2875 48.1092 17.7611 44.6264 22.03 44.6264C26.2989 44.6264 29.7725 48.1092 29.7725 52.3781C29.7725 56.5921 26.372 60.0017 22.1854 60.0932C22.1306 60.0932 22.0849 60.0749 22.03 60.0749C21.9752 60.0749 21.9112 60.0932 21.8472 60.0932C17.6606 59.9926 14.2875 56.5738 14.2875 52.3781ZM9.83582 73.4666C10.4117 67.3055 15.5856 62.4698 21.8838 62.3967C21.9203 62.3967 21.966 62.415 22.0209 62.415C22.0757 62.415 22.1214 62.3967 22.1763 62.3967C27.1856 62.4516 31.6007 65.5595 33.4015 70.2032C32.5331 71.1813 31.8018 72.2691 31.226 73.4666H9.83582ZM32.1126 78.6313C32.6885 72.4885 37.8532 67.6437 44.1423 67.5614C44.1972 67.5614 44.252 67.5797 44.2977 67.5797C44.3526 67.5797 44.4074 67.5614 44.4622 67.5614C50.7513 67.6528 55.9069 72.4885 56.4828 78.6313H32.1126ZM57.3695 73.4666C56.7936 72.2691 56.0623 71.1813 55.1939 70.2032C56.9947 65.5595 61.4098 62.4516 66.4283 62.3967C66.4831 62.3967 66.5288 62.415 66.5837 62.415C66.6294 62.415 66.6751 62.3967 66.7208 62.3967C73.019 62.4698 78.1928 67.3055 78.7687 73.4666H57.3695Z" fill="#3D3D3D"/>
</g>
<defs>
<clipPath id="clip0_1469_2147">
<rect width="91.4109" height="85.8467" fill="white"/>
</clipPath>
</defs>
</svg>
