<svg width="91" height="66" viewBox="0 0 91 66" fill="none" xmlns="http://www.w3.org/2000/svg">
<g opacity="0.5" clip-path="url(#clip0_426_1708)">
<path d="M52 0C23.2814 0 0 23.2814 0 52C0 80.7203 23.2814 104 52 104C80.7203 104 104 80.7203 104 52C104 23.2814 80.7203 0 52 0ZM52 97.6024C26.9116 97.6024 6.5 77.0884 6.5 51.9998C6.5 26.9114 26.9116 6.4998 52 6.4998C77.0884 6.4998 97.5 26.9115 97.5 51.9998C97.5 77.0881 77.0884 97.6024 52 97.6024ZM72.7529 32.9729L42.2434 63.674L28.504 49.9346C27.2349 48.6655 25.1776 48.6655 23.9069 49.9346C22.6378 51.2038 22.6378 53.261 23.9069 54.5301L39.9928 70.6176C41.2619 71.8851 43.3191 71.8851 44.5899 70.6176C44.7361 70.4714 44.8614 70.312 44.9751 70.1464L77.3516 37.5699C78.6191 36.3008 78.6191 34.2435 77.3516 32.9729C76.0809 31.7038 74.0236 31.7038 72.7529 32.9729Z" fill="#F0F0F0"/>
</g>
<defs>
<clipPath id="clip0_426_1708">
<rect width="104" height="104" fill="white"/>
</clipPath>
</defs>
</svg>
