<svg width="18" height="18" viewBox="0 0 18 18" fill="none" xmlns="http://www.w3.org/2000/svg">
<path fill-rule="evenodd" clip-rule="evenodd" d="M4.81334 0.208984C4.97988 0.208984 5.1396 0.275142 5.25736 0.392903C5.37512 0.510664 5.44128 0.670382 5.44128 0.83692V1.47574C5.99553 1.46486 6.60589 1.46486 7.27736 1.46486H10.721C11.3933 1.46486 12.0036 1.46486 12.5579 1.47574V0.83692C12.5579 0.670382 12.624 0.510664 12.7418 0.392903C12.8596 0.275142 13.0193 0.208984 13.1858 0.208984C13.3524 0.208984 13.5121 0.275142 13.6298 0.392903C13.7476 0.510664 13.8138 0.670382 13.8138 0.83692V1.52932C14.0314 1.54607 14.2377 1.56728 14.4325 1.59296C15.4137 1.72524 16.2083 2.00321 16.8354 2.62947C17.4616 3.25657 17.7396 4.05112 17.8719 5.03237C18 5.98683 18 7.20503 18 8.74389V10.5122C18 12.051 18 13.2701 17.8719 14.2237C17.7396 15.2049 17.4616 15.9995 16.8354 16.6266C16.2083 17.2528 15.4137 17.5308 14.4325 17.6631C13.478 17.7912 12.2598 17.7912 10.721 17.7912H7.27904C5.74017 17.7912 4.52114 17.7912 3.56751 17.6631C2.58626 17.5308 1.79171 17.2528 1.16461 16.6266C0.538351 15.9995 0.260384 15.2049 0.128099 14.2237C0 13.2692 0 12.051 0 10.5122V8.74389C0 7.20503 0 5.986 0.128099 5.03237C0.260384 4.05112 0.538351 3.25657 1.16461 2.62947C1.79171 2.00321 2.58626 1.72524 3.56751 1.59296C3.76287 1.56728 3.96911 1.54607 4.18624 1.52932V0.83692C4.18624 0.670526 4.25228 0.510935 4.36986 0.393198C4.48744 0.275462 4.64695 0.209206 4.81334 0.208984ZM3.73329 2.83794C2.89186 2.95097 2.40625 3.16363 2.0521 3.51779C1.69794 3.87195 1.48528 4.35755 1.37225 5.19898C1.35327 5.34132 1.33709 5.49174 1.32369 5.65026H16.6755C16.6621 5.49174 16.6459 5.34104 16.6269 5.19815C16.5139 4.35671 16.3012 3.87111 15.9471 3.51695C15.5929 3.1628 15.1073 2.95013 14.265 2.83711C13.4052 2.72157 12.2707 2.71989 10.6741 2.71989H7.32508C5.72845 2.71989 4.59482 2.7224 3.73329 2.83794ZM1.25504 8.79078C1.25504 8.07577 1.25504 7.45369 1.26592 6.90697H16.7332C16.7441 7.45369 16.7441 8.07577 16.7441 8.79078V10.4653C16.7441 12.0619 16.7425 13.1964 16.6269 14.0571C16.5139 14.8985 16.3012 15.3841 15.9471 15.7383C15.5929 16.0924 15.1073 16.3051 14.265 16.4181C13.4052 16.5337 12.2707 16.5353 10.6741 16.5353H7.32508C5.72845 16.5353 4.59482 16.5337 3.73329 16.4181C2.89186 16.3051 2.40625 16.0924 2.0521 15.7383C1.69794 15.3841 1.48528 14.8985 1.37225 14.0562C1.25671 13.1964 1.25504 12.0619 1.25504 10.4653V8.79078Z" fill="#676767"/>
</svg>
