<svg width="20" height="20" viewBox="0 0 20 20" fill="none" xmlns="http://www.w3.org/2000/svg">
<path d="M5.83317 3.33268C5.83317 2.89065 6.00877 2.46673 6.32133 2.15417C6.63389 1.84161 7.05781 1.66602 7.49984 1.66602H12.4998C12.9419 1.66602 13.3658 1.84161 13.6783 2.15417C13.9909 2.46673 14.1665 2.89065 14.1665 3.33268V4.99935H17.4998C17.7208 4.99935 17.9328 5.08715 18.0891 5.24343C18.2454 5.39971 18.3332 5.61167 18.3332 5.83268C18.3332 6.0537 18.2454 6.26566 18.0891 6.42194C17.9328 6.57822 17.7208 6.66602 17.4998 6.66602H16.609L15.8865 16.7843C15.8566 17.2048 15.6684 17.5984 15.3599 17.8857C15.0514 18.173 14.6456 18.3327 14.224 18.3327H5.77484C5.35329 18.3327 4.94739 18.173 4.63891 17.8857C4.33042 17.5984 4.14227 17.2048 4.11234 16.7843L3.3915 6.66602H2.49984C2.27882 6.66602 2.06686 6.57822 1.91058 6.42194C1.7543 6.26566 1.6665 6.0537 1.6665 5.83268C1.6665 5.61167 1.7543 5.39971 1.91058 5.24343C2.06686 5.08715 2.27882 4.99935 2.49984 4.99935H5.83317V3.33268ZM7.49984 4.99935H12.4998V3.33268H7.49984V4.99935ZM5.0615 6.66602L5.77567 16.666H14.2248L14.939 6.66602H5.0615ZM8.33317 8.33268C8.55418 8.33268 8.76615 8.42048 8.92243 8.57676C9.07871 8.73304 9.1665 8.945 9.1665 9.16602V14.166C9.1665 14.387 9.07871 14.599 8.92243 14.7553C8.76615 14.9116 8.55418 14.9993 8.33317 14.9993C8.11216 14.9993 7.9002 14.9116 7.74392 14.7553C7.58763 14.599 7.49984 14.387 7.49984 14.166V9.16602C7.49984 8.945 7.58763 8.73304 7.74392 8.57676C7.9002 8.42048 8.11216 8.33268 8.33317 8.33268ZM11.6665 8.33268C11.8875 8.33268 12.0995 8.42048 12.2558 8.57676C12.412 8.73304 12.4998 8.945 12.4998 9.16602V14.166C12.4998 14.387 12.412 14.599 12.2558 14.7553C12.0995 14.9116 11.8875 14.9993 11.6665 14.9993C11.4455 14.9993 11.2335 14.9116 11.0772 14.7553C10.921 14.599 10.8332 14.387 10.8332 14.166V9.16602C10.8332 8.945 10.921 8.73304 11.0772 8.57676C11.2335 8.42048 11.4455 8.33268 11.6665 8.33268Z" fill="#858585"/>
</svg>
