<svg width="24" height="25" viewBox="0 0 24 25" fill="none" xmlns="http://www.w3.org/2000/svg">
<path d="M13.5 12.5C13.5 12.7967 13.412 13.0867 13.2472 13.3334C13.0824 13.58 12.8481 13.7723 12.574 13.8858C12.2999 13.9994 11.9983 14.0291 11.7074 13.9712C11.4164 13.9133 11.1491 13.7704 10.9393 13.5607C10.7296 13.3509 10.5867 13.0836 10.5288 12.7926C10.4709 12.5017 10.5006 12.2001 10.6142 11.926C10.7277 11.6519 10.92 11.4176 11.1666 11.2528C11.4133 11.088 11.7033 11 12 11C12.3978 11 12.7794 11.158 13.0607 11.4393C13.342 11.7206 13.5 12.1022 13.5 12.5ZM5.625 11C5.32833 11 5.03832 11.088 4.79165 11.2528C4.54497 11.4176 4.35271 11.6519 4.23918 11.926C4.12565 12.2001 4.09594 12.5017 4.15382 12.7926C4.2117 13.0836 4.35456 13.3509 4.56434 13.5607C4.77412 13.7704 5.04139 13.9133 5.33237 13.9712C5.62334 14.0291 5.92494 13.9994 6.19903 13.8858C6.47311 13.7723 6.70738 13.58 6.87221 13.3334C7.03703 13.0867 7.125 12.7967 7.125 12.5C7.125 12.1022 6.96697 11.7206 6.68566 11.4393C6.40436 11.158 6.02283 11 5.625 11ZM18.375 11C18.0783 11 17.7883 11.088 17.5416 11.2528C17.295 11.4176 17.1027 11.6519 16.9892 11.926C16.8757 12.2001 16.8459 12.5017 16.9038 12.7926C16.9617 13.0836 17.1046 13.3509 17.3143 13.5607C17.5241 13.7704 17.7914 13.9133 18.0824 13.9712C18.3733 14.0291 18.6749 13.9994 18.949 13.8858C19.2231 13.7723 19.4574 13.58 19.6222 13.3334C19.787 13.0867 19.875 12.7967 19.875 12.5C19.875 12.1022 19.717 11.7206 19.4357 11.4393C19.1544 11.158 18.7728 11 18.375 11Z" fill="#676767"/>
</svg>
