<svg width="164" height="50" viewBox="0 0 164 50" fill="none" xmlns="http://www.w3.org/2000/svg">
<path d="M25 10C14.8257 10 10 14.8257 10 25C10 35.1743 14.8257 40 25 40C35.1743 40 40 35.1743 40 25C40 14.8257 35.1743 10 25 10Z" fill="#F98416"/>
<path d="M18.8499 21.2508C18.8499 19.2709 18.8499 18.2809 19.465 17.6659C20.0801 17.0508 21.0701 17.0508 23.05 17.0508H26.9499C28.9298 17.0508 29.9198 17.0508 30.5349 17.6659C31.1499 18.2809 31.1499 19.2709 31.1499 21.2508V26.3508C31.1499 28.3307 31.1499 29.3206 30.5349 29.9357C29.9198 30.5508 28.9298 30.5508 26.9499 30.5508H23.05C21.0701 30.5508 20.0801 30.5508 19.465 29.9357C18.8499 29.3206 18.8499 28.3307 18.8499 26.3508V21.2508Z" fill="#FBB574"/>
<g filter="url(#filter0_d_1337_3624)">
<rect x="17.65" y="18.25" width="14.7" height="13.5" rx="2.40001" fill="#FEE7D2"/>
</g>
<g filter="url(#filter1_d_1337_3624)">
<rect x="16.45" y="19.4492" width="17.1" height="13.5" rx="3.60002" fill="white"/>
</g>
<path d="M60.458 20.795H56.417V32H54.32V20.795H50.27V19.04H60.458V20.795ZM61.8302 24.521C62.1182 23.939 62.4662 23.483 62.8742 23.153C63.2822 22.817 63.7712 22.649 64.3412 22.649C64.5392 22.649 64.7252 22.673 64.8992 22.721C65.0732 22.763 65.2292 22.829 65.3672 22.919L65.2322 24.377C65.2082 24.479 65.1692 24.551 65.1152 24.593C65.0672 24.629 65.0012 24.647 64.9172 24.647C64.8272 24.647 64.6982 24.632 64.5302 24.602C64.3622 24.566 64.1852 24.548 63.9992 24.548C63.7292 24.548 63.4892 24.587 63.2792 24.665C63.0752 24.743 62.8892 24.857 62.7212 25.007C62.5592 25.157 62.4152 25.34 62.2892 25.556C62.1632 25.772 62.0462 26.018 61.9382 26.294V32H60.0032V22.82H61.1282C61.3322 22.82 61.4732 22.859 61.5512 22.937C61.6292 23.009 61.6832 23.138 61.7132 23.324L61.8302 24.521ZM71.4121 27.986C70.7221 28.01 70.1401 28.067 69.6661 28.157C69.1921 28.241 68.8081 28.352 68.5141 28.49C68.2201 28.622 68.0071 28.781 67.8751 28.967C67.7491 29.153 67.6861 29.357 67.6861 29.579C67.6861 29.795 67.7191 29.981 67.7851 30.137C67.8571 30.287 67.9531 30.413 68.0731 30.515C68.1991 30.611 68.3431 30.683 68.5051 30.731C68.6731 30.773 68.8561 30.794 69.0541 30.794C69.5581 30.794 69.9901 30.701 70.3501 30.515C70.7161 30.323 71.0701 30.047 71.4121 29.687V27.986ZM66.2821 24.098C67.3201 23.132 68.5561 22.649 69.9901 22.649C70.5181 22.649 70.9861 22.736 71.3941 22.91C71.8081 23.078 72.1531 23.318 72.4291 23.63C72.7111 23.942 72.9241 24.314 73.0681 24.746C73.2181 25.172 73.2931 25.646 73.2931 26.168V32H72.4291C72.2431 32 72.1021 31.973 72.0061 31.919C71.9101 31.859 71.8291 31.742 71.7631 31.568L71.5741 30.821C71.3401 31.031 71.1091 31.22 70.8811 31.388C70.6531 31.55 70.4161 31.688 70.1701 31.802C69.9301 31.916 69.6691 32 69.3871 32.054C69.1111 32.114 68.8051 32.144 68.4691 32.144C68.0971 32.144 67.7491 32.093 67.4251 31.991C67.1071 31.889 66.8311 31.736 66.5971 31.532C66.3631 31.322 66.1771 31.064 66.0391 30.758C65.9071 30.452 65.8411 30.092 65.8411 29.678C65.8411 29.324 65.9341 28.979 66.1201 28.643C66.3121 28.307 66.6241 28.007 67.0561 27.743C67.4941 27.473 68.0671 27.251 68.7751 27.077C69.4891 26.903 70.3681 26.804 71.4121 26.78V26.168C71.4121 25.508 71.2711 25.016 70.9891 24.692C70.7071 24.368 70.2931 24.206 69.7471 24.206C69.3751 24.206 69.0631 24.254 68.8111 24.35C68.5591 24.44 68.3401 24.539 68.1541 24.647C67.9681 24.755 67.8031 24.857 67.6591 24.953C67.5151 25.043 67.3621 25.088 67.2001 25.088C67.0681 25.088 66.9541 25.055 66.8581 24.989C66.7681 24.917 66.6931 24.83 66.6331 24.728L66.2821 24.098ZM77.5759 22.82V32H75.6409V22.82H77.5759ZM77.8999 20.048C77.8999 20.222 77.8639 20.387 77.7919 20.543C77.7259 20.699 77.6329 20.837 77.5129 20.957C77.3929 21.071 77.2519 21.164 77.0899 21.236C76.9339 21.302 76.7659 21.335 76.5859 21.335C76.4119 21.335 76.2469 21.302 76.0909 21.236C75.9409 21.164 75.8089 21.071 75.6949 20.957C75.5809 20.837 75.4879 20.699 75.4159 20.543C75.3499 20.387 75.3169 20.222 75.3169 20.048C75.3169 19.868 75.3499 19.7 75.4159 19.544C75.4879 19.388 75.5809 19.253 75.6949 19.139C75.8089 19.019 75.9409 18.926 76.0909 18.86C76.2469 18.788 76.4119 18.752 76.5859 18.752C76.7659 18.752 76.9339 18.788 77.0899 18.86C77.2519 18.926 77.3929 19.019 77.5129 19.139C77.6329 19.253 77.7259 19.388 77.7919 19.544C77.8639 19.7 77.8999 19.868 77.8999 20.048ZM81.8161 24.035C82.0141 23.831 82.2181 23.648 82.4281 23.486C82.6441 23.318 82.8721 23.174 83.1121 23.054C83.3521 22.934 83.6071 22.841 83.8771 22.775C84.1471 22.709 84.4411 22.676 84.7591 22.676C85.2631 22.676 85.7041 22.76 86.0821 22.928C86.4661 23.096 86.7871 23.333 87.0451 23.639C87.3091 23.945 87.5071 24.314 87.6391 24.746C87.7711 25.172 87.8371 25.643 87.8371 26.159V32H85.9111V26.159C85.9111 25.541 85.7671 25.061 85.4791 24.719C85.1971 24.377 84.7651 24.206 84.1831 24.206C83.7511 24.206 83.3491 24.305 82.9771 24.503C82.6111 24.701 82.2661 24.971 81.9421 25.313V32H80.0071V22.82H81.1771C81.4411 22.82 81.6091 22.943 81.6811 23.189L81.8161 24.035ZM92.113 22.82V32H90.178V22.82H92.113ZM92.437 20.048C92.437 20.222 92.401 20.387 92.329 20.543C92.263 20.699 92.17 20.837 92.05 20.957C91.93 21.071 91.789 21.164 91.627 21.236C91.471 21.302 91.303 21.335 91.123 21.335C90.949 21.335 90.784 21.302 90.628 21.236C90.478 21.164 90.346 21.071 90.232 20.957C90.118 20.837 90.025 20.699 89.953 20.543C89.887 20.387 89.854 20.222 89.854 20.048C89.854 19.868 89.887 19.7 89.953 19.544C90.025 19.388 90.118 19.253 90.232 19.139C90.346 19.019 90.478 18.926 90.628 18.86C90.784 18.788 90.949 18.752 91.123 18.752C91.303 18.752 91.471 18.788 91.627 18.86C91.789 18.926 91.93 19.019 92.05 19.139C92.17 19.253 92.263 19.388 92.329 19.544C92.401 19.7 92.437 19.868 92.437 20.048ZM96.3532 24.035C96.5512 23.831 96.7552 23.648 96.9652 23.486C97.1812 23.318 97.4092 23.174 97.6492 23.054C97.8892 22.934 98.1442 22.841 98.4142 22.775C98.6842 22.709 98.9782 22.676 99.2962 22.676C99.8002 22.676 100.241 22.76 100.619 22.928C101.003 23.096 101.324 23.333 101.582 23.639C101.846 23.945 102.044 24.314 102.176 24.746C102.308 25.172 102.374 25.643 102.374 26.159V32H100.448V26.159C100.448 25.541 100.304 25.061 100.016 24.719C99.7342 24.377 99.3022 24.206 98.7202 24.206C98.2882 24.206 97.8862 24.305 97.5142 24.503C97.1482 24.701 96.8032 24.971 96.4792 25.313V32H94.5442V22.82H95.7142C95.9782 22.82 96.1462 22.943 96.2182 23.189L96.3532 24.035ZM107.91 27.329C108.51 27.329 108.96 27.176 109.26 26.87C109.56 26.564 109.71 26.165 109.71 25.673C109.71 25.169 109.56 24.77 109.26 24.476C108.96 24.182 108.51 24.035 107.91 24.035C107.316 24.035 106.866 24.182 106.56 24.476C106.26 24.77 106.11 25.169 106.11 25.673C106.11 25.913 106.149 26.135 106.227 26.339C106.305 26.543 106.419 26.72 106.569 26.87C106.719 27.014 106.905 27.128 107.127 27.212C107.355 27.29 107.616 27.329 107.91 27.329ZM110.601 32.45C110.601 32.246 110.541 32.084 110.421 31.964C110.307 31.838 110.151 31.742 109.953 31.676C109.755 31.604 109.524 31.553 109.26 31.523C108.996 31.487 108.714 31.463 108.414 31.451C108.12 31.433 107.817 31.418 107.505 31.406C107.199 31.388 106.902 31.358 106.614 31.316C106.326 31.466 106.089 31.646 105.903 31.856C105.723 32.066 105.633 32.309 105.633 32.585C105.633 32.765 105.678 32.933 105.768 33.089C105.864 33.245 106.008 33.38 106.2 33.494C106.398 33.608 106.647 33.698 106.947 33.764C107.253 33.83 107.619 33.863 108.045 33.863C108.897 33.863 109.536 33.731 109.962 33.467C110.388 33.203 110.601 32.864 110.601 32.45ZM112.545 23.153V23.873C112.545 24.113 112.401 24.26 112.113 24.314L111.195 24.467C111.351 24.815 111.429 25.202 111.429 25.628C111.429 26.078 111.339 26.486 111.159 26.852C110.985 27.218 110.742 27.53 110.43 27.788C110.118 28.046 109.746 28.244 109.314 28.382C108.882 28.52 108.414 28.589 107.91 28.589C107.718 28.589 107.529 28.58 107.343 28.562C107.163 28.538 106.986 28.508 106.812 28.472C106.638 28.574 106.509 28.682 106.425 28.796C106.341 28.91 106.299 29.027 106.299 29.147C106.299 29.345 106.386 29.492 106.56 29.588C106.734 29.684 106.962 29.753 107.244 29.795C107.532 29.837 107.859 29.864 108.225 29.876C108.591 29.888 108.963 29.909 109.341 29.939C109.719 29.969 110.091 30.02 110.457 30.092C110.823 30.158 111.147 30.272 111.429 30.434C111.717 30.59 111.948 30.803 112.122 31.073C112.296 31.343 112.383 31.694 112.383 32.126C112.383 32.522 112.284 32.909 112.086 33.287C111.888 33.665 111.6 34.001 111.222 34.295C110.85 34.589 110.394 34.823 109.854 34.997C109.314 35.177 108.699 35.267 108.009 35.267C107.325 35.267 106.728 35.201 106.218 35.069C105.714 34.937 105.291 34.757 104.949 34.529C104.613 34.307 104.361 34.049 104.193 33.755C104.031 33.461 103.95 33.155 103.95 32.837C103.95 32.405 104.085 32.036 104.355 31.73C104.631 31.424 105.003 31.184 105.471 31.01C105.219 30.89 105.015 30.725 104.859 30.515C104.709 30.305 104.634 30.029 104.634 29.687C104.634 29.417 104.733 29.135 104.931 28.841C105.129 28.547 105.426 28.298 105.822 28.094C105.366 27.842 105.006 27.509 104.742 27.095C104.478 26.675 104.346 26.186 104.346 25.628C104.346 25.172 104.433 24.761 104.607 24.395C104.787 24.029 105.036 23.717 105.354 23.459C105.672 23.201 106.047 23.003 106.479 22.865C106.917 22.727 107.394 22.658 107.91 22.658C108.702 22.658 109.392 22.823 109.98 23.153H112.545Z" fill="white"/>
<path d="M121.158 21.254C121.092 21.362 121.023 21.443 120.951 21.497C120.879 21.545 120.789 21.569 120.681 21.569C120.567 21.569 120.438 21.521 120.294 21.425C120.156 21.329 119.982 21.224 119.772 21.11C119.568 20.99 119.325 20.882 119.043 20.786C118.761 20.684 118.425 20.633 118.035 20.633C117.675 20.633 117.357 20.678 117.081 20.768C116.811 20.858 116.583 20.984 116.397 21.146C116.211 21.308 116.07 21.5 115.974 21.722C115.884 21.938 115.839 22.175 115.839 22.433C115.839 22.763 115.926 23.039 116.1 23.261C116.274 23.477 116.502 23.663 116.784 23.819C117.072 23.975 117.399 24.113 117.765 24.233C118.131 24.347 118.503 24.47 118.881 24.602C119.265 24.734 119.64 24.884 120.006 25.052C120.372 25.22 120.696 25.433 120.978 25.691C121.266 25.949 121.497 26.264 121.671 26.636C121.845 27.008 121.932 27.461 121.932 27.995C121.932 28.571 121.833 29.111 121.635 29.615C121.437 30.119 121.149 30.56 120.771 30.938C120.399 31.31 119.937 31.604 119.385 31.82C118.839 32.036 118.215 32.144 117.513 32.144C117.099 32.144 116.694 32.102 116.298 32.018C115.908 31.94 115.533 31.829 115.173 31.685C114.819 31.535 114.486 31.355 114.174 31.145C113.862 30.935 113.583 30.701 113.337 30.443L113.949 29.435C114.003 29.351 114.072 29.285 114.156 29.237C114.24 29.189 114.333 29.165 114.435 29.165C114.573 29.165 114.726 29.231 114.894 29.363C115.062 29.489 115.263 29.63 115.497 29.786C115.737 29.936 116.025 30.077 116.361 30.209C116.697 30.335 117.099 30.398 117.567 30.398C118.329 30.398 118.917 30.212 119.331 29.84C119.751 29.468 119.961 28.955 119.961 28.301C119.961 27.935 119.874 27.638 119.7 27.41C119.526 27.176 119.295 26.981 119.007 26.825C118.725 26.669 118.401 26.537 118.035 26.429C117.669 26.321 117.297 26.207 116.919 26.087C116.541 25.961 116.169 25.817 115.803 25.655C115.437 25.487 115.11 25.271 114.822 25.007C114.54 24.737 114.312 24.407 114.138 24.017C113.964 23.621 113.877 23.129 113.877 22.541C113.877 22.073 113.967 21.62 114.147 21.182C114.333 20.744 114.6 20.357 114.948 20.021C115.302 19.679 115.737 19.406 116.253 19.202C116.769 18.998 117.357 18.896 118.017 18.896C118.761 18.896 119.442 19.013 120.06 19.247C120.684 19.481 121.221 19.814 121.671 20.246L121.158 21.254ZM131.411 22.82V32H130.241C129.983 32 129.818 31.877 129.746 31.631L129.602 30.776C129.41 30.98 129.206 31.166 128.99 31.334C128.78 31.502 128.555 31.646 128.315 31.766C128.075 31.886 127.817 31.979 127.541 32.045C127.271 32.111 126.98 32.144 126.668 32.144C126.164 32.144 125.72 32.06 125.336 31.892C124.952 31.724 124.628 31.487 124.364 31.181C124.106 30.875 123.911 30.509 123.779 30.083C123.647 29.651 123.581 29.177 123.581 28.661V22.82H125.516V28.661C125.516 29.279 125.657 29.759 125.939 30.101C126.227 30.443 126.662 30.614 127.244 30.614C127.67 30.614 128.066 30.518 128.432 30.326C128.804 30.128 129.152 29.858 129.476 29.516V22.82H131.411ZM135.777 22.82V32H133.842V22.82H135.777ZM136.101 20.048C136.101 20.222 136.065 20.387 135.993 20.543C135.927 20.699 135.834 20.837 135.714 20.957C135.594 21.071 135.453 21.164 135.291 21.236C135.135 21.302 134.967 21.335 134.787 21.335C134.613 21.335 134.448 21.302 134.292 21.236C134.142 21.164 134.01 21.071 133.896 20.957C133.782 20.837 133.689 20.699 133.617 20.543C133.551 20.387 133.518 20.222 133.518 20.048C133.518 19.868 133.551 19.7 133.617 19.544C133.689 19.388 133.782 19.253 133.896 19.139C134.01 19.019 134.142 18.926 134.292 18.86C134.448 18.788 134.613 18.752 134.787 18.752C134.967 18.752 135.135 18.788 135.291 18.86C135.453 18.926 135.594 19.019 135.714 19.139C135.834 19.253 135.927 19.388 135.993 19.544C136.065 19.7 136.101 19.868 136.101 20.048ZM141.151 32.144C140.389 32.144 139.801 31.931 139.387 31.505C138.979 31.073 138.775 30.467 138.775 29.687V24.341H137.767C137.659 24.341 137.566 24.308 137.488 24.242C137.41 24.17 137.371 24.065 137.371 23.927V23.144L138.856 22.928L139.279 20.273C139.309 20.171 139.36 20.09 139.432 20.03C139.504 19.964 139.6 19.931 139.72 19.931H140.71V22.946H143.257V24.341H140.71V29.552C140.71 29.882 140.791 30.134 140.953 30.308C141.115 30.482 141.331 30.569 141.601 30.569C141.751 30.569 141.88 30.551 141.988 30.515C142.096 30.473 142.189 30.431 142.267 30.389C142.345 30.341 142.411 30.299 142.465 30.263C142.525 30.221 142.582 30.2 142.636 30.2C142.744 30.2 142.831 30.26 142.897 30.38L143.473 31.325C143.173 31.589 142.819 31.793 142.411 31.937C142.003 32.075 141.583 32.144 141.151 32.144ZM150.733 26.375C150.733 26.051 150.685 25.751 150.589 25.475C150.499 25.193 150.364 24.95 150.184 24.746C150.004 24.536 149.779 24.374 149.509 24.26C149.245 24.14 148.939 24.08 148.591 24.08C147.889 24.08 147.337 24.281 146.935 24.683C146.533 25.085 146.278 25.649 146.17 26.375H150.733ZM146.116 27.563C146.14 28.085 146.221 28.538 146.359 28.922C146.497 29.3 146.68 29.615 146.908 29.867C147.142 30.119 147.418 30.308 147.736 30.434C148.06 30.554 148.42 30.614 148.816 30.614C149.194 30.614 149.521 30.572 149.797 30.488C150.073 30.398 150.313 30.302 150.517 30.2C150.721 30.092 150.895 29.996 151.039 29.912C151.183 29.822 151.315 29.777 151.435 29.777C151.591 29.777 151.711 29.837 151.795 29.957L152.344 30.668C152.116 30.938 151.858 31.166 151.57 31.352C151.282 31.538 150.976 31.691 150.652 31.811C150.328 31.925 149.995 32.006 149.653 32.054C149.311 32.108 148.978 32.135 148.654 32.135C148.018 32.135 147.427 32.03 146.881 31.82C146.341 31.604 145.87 31.289 145.468 30.875C145.072 30.461 144.76 29.948 144.532 29.336C144.31 28.724 144.199 28.019 144.199 27.221C144.199 26.585 144.298 25.991 144.496 25.439C144.7 24.887 144.988 24.407 145.36 23.999C145.738 23.591 146.194 23.27 146.728 23.036C147.268 22.796 147.877 22.676 148.555 22.676C149.119 22.676 149.641 22.769 150.121 22.955C150.601 23.135 151.015 23.402 151.363 23.756C151.711 24.11 151.981 24.545 152.173 25.061C152.371 25.571 152.47 26.153 152.47 26.807C152.47 27.107 152.437 27.308 152.371 27.41C152.305 27.512 152.185 27.563 152.011 27.563H146.116Z" fill="#F98416"/>
<defs>
<filter id="filter0_d_1337_3624" x="17.65" y="17.9973" width="14.7" height="13.7527" filterUnits="userSpaceOnUse" color-interpolation-filters="sRGB">
<feFlood flood-opacity="0" result="BackgroundImageFix"/>
<feColorMatrix in="SourceAlpha" type="matrix" values="0 0 0 0 0 0 0 0 0 0 0 0 0 0 0 0 0 0 127 0" result="hardAlpha"/>
<feMorphology radius="0.450003" operator="erode" in="SourceAlpha" result="effect1_dropShadow_1337_3624"/>
<feOffset dy="-0.702744"/>
<feColorMatrix type="matrix" values="0 0 0 0 0.956667 0 0 0 0 0.507961 0 0 0 0 0.0861001 0 0 0 1 0"/>
<feBlend mode="normal" in2="BackgroundImageFix" result="effect1_dropShadow_1337_3624"/>
<feBlend mode="normal" in="SourceGraphic" in2="effect1_dropShadow_1337_3624" result="shape"/>
</filter>
<filter id="filter1_d_1337_3624" x="16.45" y="19.1965" width="17.1" height="13.7527" filterUnits="userSpaceOnUse" color-interpolation-filters="sRGB">
<feFlood flood-opacity="0" result="BackgroundImageFix"/>
<feColorMatrix in="SourceAlpha" type="matrix" values="0 0 0 0 0 0 0 0 0 0 0 0 0 0 0 0 0 0 127 0" result="hardAlpha"/>
<feMorphology radius="0.450003" operator="erode" in="SourceAlpha" result="effect1_dropShadow_1337_3624"/>
<feOffset dy="-0.702744"/>
<feColorMatrix type="matrix" values="0 0 0 0 0.956667 0 0 0 0 0.507961 0 0 0 0 0.0861001 0 0 0 1 0"/>
<feBlend mode="normal" in2="BackgroundImageFix" result="effect1_dropShadow_1337_3624"/>
<feBlend mode="normal" in="SourceGraphic" in2="effect1_dropShadow_1337_3624" result="shape"/>
</filter>
</defs>
</svg>
