<svg width="18" height="18" viewBox="0 0 18 18" fill="none" xmlns="http://www.w3.org/2000/svg">
<path d="M0.548096 17.938H17.4481C17.5807 17.938 17.7079 17.8853 17.8016 17.7915C17.8954 17.6978 17.9481 17.5706 17.9481 17.438C17.9481 17.3054 17.8954 17.1782 17.8016 17.0844C17.7079 16.9907 17.5807 16.938 17.4481 16.938H0.548096C0.415487 16.938 0.28831 16.9907 0.194542 17.0844C0.100774 17.1782 0.0480957 17.3054 0.0480957 17.438C0.0480957 17.5706 0.100774 17.6978 0.194542 17.7915C0.28831 17.8853 0.415487 17.938 0.548096 17.938ZM6.7101 14.18C7.13227 14.0612 7.51756 13.8376 7.8301 13.53L17.3701 3.98999C17.6968 3.662 17.8802 3.21793 17.8802 2.75499C17.8802 2.29205 17.6968 1.84798 17.3701 1.51999L16.4301 0.589989C16.0972 0.2727 15.655 0.0957031 15.1951 0.0957031C14.7352 0.0957031 14.293 0.2727 13.9601 0.589989L4.4201 10.12C4.11246 10.4309 3.89178 10.8171 3.7801 11.24L3.0401 14C3.0053 14.1261 3.00456 14.2591 3.03793 14.3856C3.07131 14.5121 3.13762 14.6275 3.2301 14.72C3.37182 14.8589 3.56168 14.9377 3.7601 14.94L6.7101 14.18ZM7.1201 12.82C6.93568 13.0076 6.7043 13.1423 6.4501 13.21L5.48009 13.47L4.4801 12.47L4.7401 11.5C4.80914 11.2463 4.94363 11.0153 5.1301 10.83L5.5101 10.46L7.5001 12.45L7.1201 12.82ZM8.2101 11.74L6.2201 9.74999L12.9501 3.01999L14.9401 5.00999L8.2101 11.74ZM16.6601 3.28999L15.6501 4.29999L13.6601 2.30999L14.6701 1.28999C14.8107 1.14954 15.0013 1.07065 15.2001 1.07065C15.3988 1.07065 15.5895 1.14954 15.7301 1.28999L16.6601 2.22999C16.7996 2.37113 16.8778 2.56156 16.8778 2.75999C16.8778 2.95842 16.7996 3.14885 16.6601 3.28999Z" fill="#676767"/>
</svg>
