<svg width="19" height="17" viewBox="0 0 19 17" fill="none" xmlns="http://www.w3.org/2000/svg">
<g clip-path="url(#clip0_128_1644)">
<path d="M16.712 15.2493H2.0878C1.1541 15.2493 0.400391 14.4956 0.400391 13.5619V3.43741C0.400391 2.50371 1.1541 1.75 2.0878 1.75H16.712C17.6457 1.75 18.3995 2.50371 18.3995 3.43741V13.5619C18.3995 14.4956 17.6457 15.2493 16.712 15.2493ZM2.0878 2.87494C1.77282 2.87494 1.52533 3.12243 1.52533 3.43741V13.5619C1.52533 13.8769 1.77282 14.1244 2.0878 14.1244H16.712C17.027 14.1244 17.2745 13.8769 17.2745 13.5619V3.43741C17.2745 3.12243 17.027 2.87494 16.712 2.87494H2.0878Z" fill="#676767"/>
<path d="M9.39982 10.704C8.61236 10.704 7.8924 10.3891 7.35243 9.81534L1.44649 3.53816C1.23275 3.31317 1.244 2.95319 1.46898 2.73945C1.69397 2.52572 2.05395 2.53696 2.26769 2.76195L8.17364 9.03913C8.81485 9.72534 9.98479 9.72534 10.626 9.03913L16.532 2.7732C16.7457 2.54821 17.1057 2.53696 17.3307 2.7507C17.5556 2.96444 17.5669 3.32442 17.3532 3.54941L11.4472 9.82659C10.9072 10.4003 10.1873 10.7153 9.39982 10.7153V10.704Z" fill="#676767"/>
</g>
<defs>
<clipPath id="clip0_128_1644">
<rect width="18" height="15.7492" fill="white" transform="translate(0.399902 0.625)"/>
</clipPath>
</defs>
</svg>
