<svg width="23" height="14" viewBox="0 0 23 14" fill="none" xmlns="http://www.w3.org/2000/svg">
<path d="M21.4585 2.875H1.2085C0.910128 2.875 0.623979 2.75647 0.413001 2.5455C0.202023 2.33452 0.0834961 2.04837 0.0834961 1.75C0.0834961 1.45163 0.202023 1.16548 0.413001 0.954505C0.623979 0.743526 0.910128 0.625 1.2085 0.625H21.4585C21.7569 0.625 22.043 0.743526 22.254 0.954505C22.465 1.16548 22.5835 1.45163 22.5835 1.75C22.5835 2.04837 22.465 2.33452 22.254 2.5455C22.043 2.75647 21.7569 2.875 21.4585 2.875ZM17.7085 8.125H4.9585C4.66013 8.125 4.37398 8.00647 4.163 7.79549C3.95202 7.58452 3.8335 7.29837 3.8335 7C3.8335 6.70163 3.95202 6.41548 4.163 6.2045C4.37398 5.99353 4.66013 5.875 4.9585 5.875H17.7085C18.0069 5.875 18.293 5.99353 18.504 6.2045C18.715 6.41548 18.8335 6.70163 18.8335 7C18.8335 7.29837 18.715 7.58452 18.504 7.79549C18.293 8.00647 18.0069 8.125 17.7085 8.125ZM13.2085 13.375H9.4585C9.16013 13.375 8.87398 13.2565 8.663 13.0455C8.45202 12.8345 8.3335 12.5484 8.3335 12.25C8.3335 11.9516 8.45202 11.6655 8.663 11.4545C8.87398 11.2435 9.16013 11.125 9.4585 11.125H13.2085C13.5069 11.125 13.793 11.2435 14.004 11.4545C14.215 11.6655 14.3335 11.9516 14.3335 12.25C14.3335 12.5484 14.215 12.8345 14.004 13.0455C13.793 13.2565 13.5069 13.375 13.2085 13.375Z" fill="#858585"/>
</svg>
