<svg width="25" height="25" viewBox="0 0 25 25" fill="none" xmlns="http://www.w3.org/2000/svg">
<g clip-path="url(#clip0_772_4135)">
<path d="M17.2934 14.1001C17.4846 13.5884 17.5817 13.0463 17.5801 12.5001C17.5801 11.2872 17.0983 10.1239 16.2406 9.26626C15.3829 8.40859 14.2197 7.92676 13.0068 7.92676C12.4672 7.92753 11.9322 8.02461 11.4268 8.21342L12.5001 9.32009C12.6633 9.29455 12.8282 9.28118 12.9934 9.28009C13.851 9.2783 14.6745 9.61592 15.2841 10.2192C15.8936 10.8225 16.2397 11.6425 16.2468 12.5001C16.2457 12.6653 16.2323 12.8302 16.2068 12.9934L17.2934 14.1001Z" fill="#C2C2C2"/>
<path d="M23.3598 12.1867C21.1132 8.03335 17.1732 5.52002 12.8132 5.52002C11.626 5.52258 10.4469 5.71386 9.31982 6.08669L10.3932 7.16669C11.1838 6.96251 11.9966 6.85726 12.8132 6.85335C16.5665 6.85335 19.9798 8.94669 22.0132 12.4734C21.2666 13.7813 20.2779 14.9352 19.0998 15.8734L20.0465 16.82C21.4109 15.72 22.5438 14.3604 23.3798 12.82L23.5532 12.5L23.3598 12.1867Z" fill="#C2C2C2"/>
<path d="M3.74643 4.3532L6.71976 7.32653C4.83998 8.53614 3.30387 10.21 2.25976 12.1865L2.08643 12.4999L2.25976 12.8199C4.50643 16.9732 8.44642 19.4865 12.8064 19.4865C14.5083 19.4869 16.1881 19.1017 17.7198 18.3599L21.0531 21.6932L22.2198 20.6932L4.88643 3.35986L3.74643 4.3532ZM10.2464 10.8532L14.6798 15.2865C14.179 15.5969 13.6022 15.763 13.0131 15.7665C12.585 15.7665 12.1612 15.6819 11.766 15.5175C11.3708 15.3531 11.012 15.1121 10.7103 14.8085C10.4085 14.5049 10.1698 14.1447 10.0078 13.7485C9.84582 13.3522 9.76379 12.9279 9.76643 12.4999C9.7736 11.9175 9.93956 11.3482 10.2464 10.8532ZM9.27976 9.88653C8.65605 10.7661 8.36371 11.8381 8.4545 12.9125C8.5453 13.987 9.01336 14.9947 9.77583 15.7571C10.5383 16.5196 11.546 16.9877 12.6204 17.0785C13.6949 17.1692 14.7668 16.8769 15.6464 16.2532L16.7131 17.3199C15.4783 17.8479 14.1493 18.12 12.8064 18.1199C9.05309 18.1199 5.63976 16.0265 3.60643 12.4999C4.58247 10.7722 5.98776 9.32557 7.68643 8.29986L9.27976 9.88653Z" fill="#C2C2C2"/>
</g>
<defs>
<clipPath id="clip0_772_4135">
<rect width="24" height="24" fill="white" transform="translate(0.5 0.5)"/>
</clipPath>
</defs>
</svg>
