<svg width="30" height="30" viewBox="0 0 30 30" fill="none" xmlns="http://www.w3.org/2000/svg">
<path d="M15 0C4.82566 0 0 4.82566 0 15C0 25.1743 4.82566 30 15 30C25.1743 30 30 25.1743 30 15C30 4.82566 25.1743 0 15 0Z" fill="#F98416"/>
<path d="M8.84995 11.2498C8.84995 9.26992 8.84995 8.27996 9.46502 7.66488C10.0801 7.0498 11.0701 7.0498 13.05 7.0498H16.9499C18.9298 7.0498 19.9198 7.0498 20.5349 7.66488C21.1499 8.27996 21.1499 9.26992 21.1499 11.2498V16.3498C21.1499 18.3297 21.1499 19.3196 20.5349 19.9347C19.9198 20.5498 18.9298 20.5498 16.9499 20.5498H13.05C11.0701 20.5498 10.0801 20.5498 9.46502 19.9347C8.84995 19.3196 8.84995 18.3297 8.84995 16.3498V11.2498Z" fill="#FBB574"/>
<g filter="url(#filter0_d_2192_401)">
<rect x="7.64999" y="8.25" width="14.7" height="13.5" rx="2.40001" fill="#FEE7D2"/>
</g>
<g filter="url(#filter1_d_2192_401)">
<rect x="6.45004" y="9.4502" width="17.1" height="13.5" rx="3.60002" fill="white"/>
</g>
<defs>
<filter id="filter0_d_2192_401" x="7.64999" y="7.99726" width="14.7" height="13.7527" filterUnits="userSpaceOnUse" color-interpolation-filters="sRGB">
<feFlood flood-opacity="0" result="BackgroundImageFix"/>
<feColorMatrix in="SourceAlpha" type="matrix" values="0 0 0 0 0 0 0 0 0 0 0 0 0 0 0 0 0 0 127 0" result="hardAlpha"/>
<feMorphology radius="0.450003" operator="erode" in="SourceAlpha" result="effect1_dropShadow_2192_401"/>
<feOffset dy="-0.702744"/>
<feColorMatrix type="matrix" values="0 0 0 0 0.956667 0 0 0 0 0.507961 0 0 0 0 0.0861001 0 0 0 1 0"/>
<feBlend mode="normal" in2="BackgroundImageFix" result="effect1_dropShadow_2192_401"/>
<feBlend mode="normal" in="SourceGraphic" in2="effect1_dropShadow_2192_401" result="shape"/>
</filter>
<filter id="filter1_d_2192_401" x="6.45004" y="9.19745" width="17.1" height="13.7527" filterUnits="userSpaceOnUse" color-interpolation-filters="sRGB">
<feFlood flood-opacity="0" result="BackgroundImageFix"/>
<feColorMatrix in="SourceAlpha" type="matrix" values="0 0 0 0 0 0 0 0 0 0 0 0 0 0 0 0 0 0 127 0" result="hardAlpha"/>
<feMorphology radius="0.450003" operator="erode" in="SourceAlpha" result="effect1_dropShadow_2192_401"/>
<feOffset dy="-0.702744"/>
<feColorMatrix type="matrix" values="0 0 0 0 0.956667 0 0 0 0 0.507961 0 0 0 0 0.0861001 0 0 0 1 0"/>
<feBlend mode="normal" in2="BackgroundImageFix" result="effect1_dropShadow_2192_401"/>
<feBlend mode="normal" in="SourceGraphic" in2="effect1_dropShadow_2192_401" result="shape"/>
</filter>
</defs>
</svg>
