<svg width="16" height="19" viewBox="0 0 16 19" fill="none" xmlns="http://www.w3.org/2000/svg">
<path d="M3.17857 9.5H8.89285M3.17857 11.7857H11.1786M3.17857 14.0714H6.60714M14.6071 15.2143V7.21429L8.89285 1.5H3.17857C2.57236 1.5 1.99098 1.74082 1.56232 2.16947C1.13367 2.59812 0.892853 3.17951 0.892853 3.78571V15.2143C0.892853 15.8205 1.13367 16.4019 1.56232 16.8305C1.99098 17.2592 2.57236 17.5 3.17857 17.5H12.3214C12.9276 17.5 13.509 17.2592 13.9377 16.8305C14.3663 16.4019 14.6071 15.8205 14.6071 15.2143Z" stroke="#676767" stroke-width="1.14286" stroke-linecap="round" stroke-linejoin="round"/>
<path d="M8.89285 1.5V4.92857C8.89285 5.53478 9.13367 6.11616 9.56232 6.54482C9.99098 6.97347 10.5724 7.21429 11.1786 7.21429H14.6071" stroke="#676767" stroke-width="1.14286" stroke-linecap="round" stroke-linejoin="round"/>
</svg>
