<svg width="16" height="3" viewBox="0 0 16 3" fill="none" xmlns="http://www.w3.org/2000/svg">
<path d="M9.5 1.5C9.5 1.79667 9.41203 2.08668 9.2472 2.33336C9.08238 2.58003 8.84812 2.77229 8.57403 2.88582C8.29994 2.99935 7.99834 3.02906 7.70737 2.97118C7.41639 2.9133 7.14912 2.77044 6.93934 2.56066C6.72956 2.35088 6.5867 2.08361 6.52882 1.79264C6.47094 1.50166 6.50065 1.20006 6.61418 0.925975C6.72771 0.651886 6.91997 0.417618 7.16665 0.252796C7.41332 0.0879736 7.70333 0 8 0C8.39783 0 8.77936 0.158036 9.06066 0.43934C9.34196 0.720645 9.5 1.10218 9.5 1.5ZM1.625 0C1.32833 0 1.03832 0.0879736 0.791646 0.252796C0.544972 0.417618 0.352713 0.651886 0.239181 0.925975C0.12565 1.20006 0.0959449 1.50166 0.153823 1.79264C0.211701 2.08361 0.354562 2.35088 0.564341 2.56066C0.774119 2.77044 1.04139 2.9133 1.33237 2.97118C1.62334 3.02906 1.92494 2.99935 2.19903 2.88582C2.47311 2.77229 2.70738 2.58003 2.87221 2.33336C3.03703 2.08668 3.125 1.79667 3.125 1.5C3.125 1.10218 2.96697 0.720645 2.68566 0.43934C2.40436 0.158036 2.02283 0 1.625 0ZM14.375 0C14.0783 0 13.7883 0.0879736 13.5416 0.252796C13.295 0.417618 13.1027 0.651886 12.9892 0.925975C12.8757 1.20006 12.8459 1.50166 12.9038 1.79264C12.9617 2.08361 13.1046 2.35088 13.3143 2.56066C13.5241 2.77044 13.7914 2.9133 14.0824 2.97118C14.3733 3.02906 14.6749 2.99935 14.949 2.88582C15.2231 2.77229 15.4574 2.58003 15.6222 2.33336C15.787 2.08668 15.875 1.79667 15.875 1.5C15.875 1.10218 15.717 0.720645 15.4357 0.43934C15.1544 0.158036 14.7728 0 14.375 0Z" fill="#676767"/>
</svg>
