<svg width="20" height="20" viewBox="0 0 20 20" fill="none" xmlns="http://www.w3.org/2000/svg">
<path d="M8.74992 16.6663C8.74992 16.9979 8.88161 17.3158 9.11603 17.5502C9.35046 17.7846 9.6684 17.9163 9.99992 17.9163C10.3314 17.9163 10.6494 17.7846 10.8838 17.5502C11.1182 17.3158 11.2499 16.9979 11.2499 16.6663V11.2497H16.6666C16.9981 11.2497 17.316 11.118 17.5505 10.8836C17.7849 10.6491 17.9166 10.3312 17.9166 9.99967C17.9166 9.66815 17.7849 9.35021 17.5505 9.11579C17.316 8.88137 16.9981 8.74967 16.6666 8.74967H11.2499V3.33301C11.2499 3.00149 11.1182 2.68354 10.8838 2.44912C10.6494 2.2147 10.3314 2.08301 9.99992 2.08301C9.6684 2.08301 9.35046 2.2147 9.11603 2.44912C8.88161 2.68354 8.74992 3.00149 8.74992 3.33301V8.74967H3.33325C3.00173 8.74967 2.68379 8.88137 2.44937 9.11579C2.21495 9.35021 2.08325 9.66815 2.08325 9.99967C2.08325 10.3312 2.21495 10.6491 2.44937 10.8836C2.68379 11.118 3.00173 11.2497 3.33325 11.2497H8.74992V16.6663Z" fill="#676767"/>
</svg>
