<svg width="19" height="20" viewBox="0 0 19 20" fill="none" xmlns="http://www.w3.org/2000/svg">
<path d="M13.8 1.30039C13.8 1.0617 13.8948 0.832777 14.0636 0.663994C14.2324 0.495212 14.4613 0.400391 14.7 0.400391H17.7C17.9387 0.400391 18.1676 0.495212 18.3364 0.663994C18.5052 0.832777 18.6 1.0617 18.6 1.30039V4.30039C18.6 4.53909 18.5052 4.768 18.3364 4.93679C18.1676 5.10557 17.9387 5.20039 17.7 5.20039C17.4613 5.20039 17.2324 5.10557 17.0636 4.93679C16.8948 4.768 16.8 4.53909 16.8 4.30039V3.47239L11.436 8.83639C11.2672 9.00493 11.0385 9.0996 10.8 9.0996C10.5615 9.0996 10.3327 9.00493 10.164 8.83639L7.2 5.87239L2.136 10.9364C2.0536 11.0248 1.95424 11.0957 1.84384 11.1449C1.73344 11.1941 1.61427 11.2206 1.49342 11.2227C1.37258 11.2248 1.25254 11.2026 1.14048 11.1573C1.02841 11.1121 0.926612 11.0447 0.841149 10.9592C0.755687 10.8738 0.688313 10.772 0.643048 10.6599C0.597783 10.5478 0.575553 10.4278 0.577685 10.307C0.579817 10.1861 0.606268 10.0669 0.655458 9.95654C0.704648 9.84615 0.775571 9.74679 0.863995 9.66439L6.56399 3.96439C6.73275 3.79585 6.96149 3.70118 7.2 3.70118C7.4385 3.70118 7.66724 3.79585 7.836 3.96439L10.8 6.92839L15.528 2.20039H14.7C14.4613 2.20039 14.2324 2.10557 14.0636 1.93679C13.8948 1.768 13.8 1.53909 13.8 1.30039ZM1.5 14.8004C1.73869 14.8004 1.96761 14.8952 2.13639 15.064C2.30517 15.2328 2.4 15.4617 2.4 15.7004V18.7004C2.4 18.9391 2.30517 19.168 2.13639 19.3368C1.96761 19.5056 1.73869 19.6004 1.5 19.6004C1.2613 19.6004 1.03238 19.5056 0.863599 19.3368C0.694816 19.168 0.599995 18.9391 0.599995 18.7004V15.7004C0.599995 15.4617 0.694816 15.2328 0.863599 15.064C1.03238 14.8952 1.2613 14.8004 1.5 14.8004ZM7.2 12.1004C7.2 11.8617 7.10517 11.6328 6.93639 11.464C6.76761 11.2952 6.53869 11.2004 6.3 11.2004C6.0613 11.2004 5.83238 11.2952 5.6636 11.464C5.49482 11.6328 5.4 11.8617 5.4 12.1004V18.7004C5.4 18.9391 5.49482 19.168 5.6636 19.3368C5.83238 19.5056 6.0613 19.6004 6.3 19.6004C6.53869 19.6004 6.76761 19.5056 6.93639 19.3368C7.10517 19.168 7.2 18.9391 7.2 18.7004V12.1004ZM11.1 13.6004C11.3387 13.6004 11.5676 13.6952 11.7364 13.864C11.9052 14.0328 12 14.2617 12 14.5004V18.7004C12 18.9391 11.9052 19.168 11.7364 19.3368C11.5676 19.5056 11.3387 19.6004 11.1 19.6004C10.8613 19.6004 10.6324 19.5056 10.4636 19.3368C10.2948 19.168 10.2 18.9391 10.2 18.7004V14.5004C10.2 14.2617 10.2948 14.0328 10.4636 13.864C10.6324 13.6952 10.8613 13.6004 11.1 13.6004ZM16.8 9.70039C16.8 9.4617 16.7052 9.23278 16.5364 9.064C16.3676 8.89521 16.1387 8.80039 15.9 8.80039C15.6613 8.80039 15.4324 8.89521 15.2636 9.064C15.0948 9.23278 15 9.4617 15 9.70039V18.7004C15 18.9391 15.0948 19.168 15.2636 19.3368C15.4324 19.5056 15.6613 19.6004 15.9 19.6004C16.1387 19.6004 16.3676 19.5056 16.5364 19.3368C16.7052 19.168 16.8 18.9391 16.8 18.7004V9.70039Z" fill="#676767"/>
</svg>
