<svg width="18" height="16" viewBox="0 0 18 16" fill="none" xmlns="http://www.w3.org/2000/svg">
<path d="M15.1895 7.25095H1.25C1.05109 7.25095 0.860322 7.32997 0.71967 7.47062C0.579018 7.61127 0.5 7.80203 0.5 8.00095C0.5 8.19986 0.579018 8.39063 0.71967 8.53128C0.860322 8.67193 1.05109 8.75095 1.25 8.75095H15.1895L9.719 14.2199C9.57817 14.3608 9.49905 14.5518 9.49905 14.7509C9.49905 14.9501 9.57817 15.1411 9.719 15.2819C9.85983 15.4228 10.0508 15.5019 10.25 15.5019C10.4492 15.5019 10.6402 15.4228 10.781 15.2819L17.531 8.53195C17.6008 8.46228 17.6563 8.37951 17.6941 8.2884C17.7319 8.19728 17.7513 8.0996 17.7513 8.00095C17.7513 7.9023 17.7319 7.80462 17.6941 7.7135C17.6563 7.62238 17.6008 7.53962 17.531 7.46995L10.781 0.719947C10.6402 0.579117 10.4492 0.5 10.25 0.5C10.0508 0.5 9.85983 0.579117 9.719 0.719947C9.57817 0.860777 9.49905 1.05178 9.49905 1.25095C9.49905 1.45011 9.57817 1.64112 9.719 1.78195L15.1895 7.25095Z" fill="#F98416"/>
</svg>
