<svg width="22" height="22" viewBox="0 0 22 22" fill="none" xmlns="http://www.w3.org/2000/svg">
<path d="M19.25 11.5696V10.4221L20.69 9.16207C20.9555 8.92811 21.1296 8.60784 21.1818 8.25787C21.2339 7.9079 21.1607 7.55076 20.975 7.24957L19.205 4.24957C19.0735 4.02177 18.8844 3.83256 18.6566 3.70092C18.4289 3.56928 18.1705 3.49984 17.9075 3.49957C17.7445 3.49832 17.5824 3.52366 17.4275 3.57457L15.605 4.18957C15.2908 3.9798 14.9625 3.79185 14.6225 3.62707L14.24 1.73707C14.1714 1.39178 13.9836 1.0816 13.7093 0.860849C13.4351 0.640096 13.092 0.522827 12.74 0.529572H9.23001C8.87803 0.522827 8.53489 0.640096 8.26067 0.860849C7.98644 1.0816 7.79859 1.39178 7.73001 1.73707L7.34751 3.62707C7.00548 3.79256 6.67476 3.98047 6.35751 4.18957L4.57251 3.54457C4.41598 3.50379 4.25389 3.48859 4.09251 3.49957C3.82946 3.49984 3.57111 3.56928 3.34338 3.70092C3.11564 3.83256 2.92653 4.02177 2.79501 4.24957L1.02501 7.24957C0.849947 7.55031 0.784895 7.90257 0.840993 8.246C0.897091 8.58943 1.07085 8.90267 1.33251 9.13207L2.75001 10.4296V11.5771L1.33251 12.8371C1.06346 13.0681 0.884948 13.3869 0.828655 13.737C0.772363 14.0871 0.841928 14.4459 1.02501 14.7496L2.79501 17.7496C2.92653 17.9774 3.11564 18.1666 3.34338 18.2982C3.57111 18.4299 3.82946 18.4993 4.09251 18.4996C4.25552 18.5008 4.41764 18.4755 4.57251 18.4246L6.39501 17.8096C6.70924 18.0194 7.03751 18.2073 7.37751 18.3721L7.76001 20.2621C7.82859 20.6074 8.01644 20.9175 8.29067 21.1383C8.56489 21.3591 8.90803 21.4763 9.26001 21.4696H12.8C13.152 21.4763 13.4951 21.3591 13.7693 21.1383C14.0436 20.9175 14.2314 20.6074 14.3 20.2621L14.6825 18.3721C15.0245 18.2066 15.3553 18.0187 15.6725 17.8096L17.4875 18.4246C17.6424 18.4755 17.8045 18.5008 17.9675 18.4996C18.2306 18.4993 18.4889 18.4299 18.7166 18.2982C18.9444 18.1666 19.1335 17.9774 19.265 17.7496L20.975 14.7496C21.1501 14.4488 21.2151 14.0966 21.159 13.7532C21.1029 13.4097 20.9292 13.0965 20.6675 12.8671L19.25 11.5696ZM17.9075 16.9996L15.335 16.1296C14.7324 16.6391 14.0443 17.0378 13.3025 17.3071L12.77 19.9996H9.23001L8.69751 17.3371C7.96157 17.0602 7.27712 16.6623 6.67251 16.1596L4.09251 16.9996L2.32251 13.9996L4.36251 12.1996C4.22383 11.4232 4.22383 10.6284 4.36251 9.85207L2.32251 7.99957L4.09251 4.99957L6.66501 5.86957C7.26758 5.36001 7.95573 4.96134 8.69751 4.69207L9.23001 1.99957H12.77L13.3025 4.66207C14.0384 4.9389 14.7229 5.3369 15.3275 5.83957L17.9075 4.99957L19.6775 7.99957L17.6375 9.79957C17.7762 10.5759 17.7762 11.3707 17.6375 12.1471L19.6775 13.9996L17.9075 16.9996Z" fill="#676767"/>
</svg>
