<svg width="24" height="24" viewBox="0 0 24 24" fill="none" xmlns="http://www.w3.org/2000/svg">
<path d="M20.25 12.5696V11.4221L21.69 10.1621C21.9555 9.92811 22.1296 9.60784 22.1818 9.25787C22.2339 8.9079 22.1607 8.55076 21.975 8.24957L20.205 5.24957C20.0735 5.02177 19.8844 4.83256 19.6566 4.70092C19.4289 4.56928 19.1705 4.49984 18.9075 4.49957C18.7445 4.49832 18.5824 4.52366 18.4275 4.57457L16.605 5.18957C16.2908 4.9798 15.9625 4.79185 15.6225 4.62707L15.24 2.73707C15.1714 2.39178 14.9836 2.0816 14.7093 1.86085C14.4351 1.6401 14.092 1.52283 13.74 1.52957H10.23C9.87803 1.52283 9.53489 1.6401 9.26067 1.86085C8.98644 2.0816 8.79859 2.39178 8.73001 2.73707L8.34751 4.62707C8.00548 4.79256 7.67476 4.98047 7.35751 5.18957L5.57251 4.54457C5.41598 4.50379 5.25389 4.48859 5.09251 4.49957C4.82946 4.49984 4.57111 4.56928 4.34338 4.70092C4.11564 4.83256 3.92653 5.02177 3.79501 5.24957L2.02501 8.24957C1.84995 8.55031 1.7849 8.90257 1.84099 9.246C1.89709 9.58943 2.07085 9.90267 2.33251 10.1321L3.75001 11.4296V12.5771L2.33251 13.8371C2.06346 14.0681 1.88495 14.3869 1.82866 14.737C1.77236 15.0871 1.84193 15.4459 2.02501 15.7496L3.79501 18.7496C3.92653 18.9774 4.11564 19.1666 4.34338 19.2982C4.57111 19.4299 4.82946 19.4993 5.09251 19.4996C5.25552 19.5008 5.41764 19.4755 5.57251 19.4246L7.39501 18.8096C7.70924 19.0194 8.03751 19.2073 8.37751 19.3721L8.76001 21.2621C8.82859 21.6074 9.01644 21.9175 9.29067 22.1383C9.56489 22.3591 9.90803 22.4763 10.26 22.4696H13.8C14.152 22.4763 14.4951 22.3591 14.7693 22.1383C15.0436 21.9175 15.2314 21.6074 15.3 21.2621L15.6825 19.3721C16.0245 19.2066 16.3553 19.0187 16.6725 18.8096L18.4875 19.4246C18.6424 19.4755 18.8045 19.5008 18.9675 19.4996C19.2306 19.4993 19.4889 19.4299 19.7166 19.2982C19.9444 19.1666 20.1335 18.9774 20.265 18.7496L21.975 15.7496C22.1501 15.4488 22.2151 15.0966 22.159 14.7532C22.1029 14.4097 21.9292 14.0965 21.6675 13.8671L20.25 12.5696ZM18.9075 17.9996L16.335 17.1296C15.7324 17.6391 15.0443 18.0378 14.3025 18.3071L13.77 20.9996H10.23L9.69751 18.3371C8.96157 18.0602 8.27712 17.6623 7.67251 17.1596L5.09251 17.9996L3.32251 14.9996L5.36251 13.1996C5.22383 12.4232 5.22383 11.6284 5.36251 10.8521L3.32251 8.99957L5.09251 5.99957L7.66501 6.86957C8.26758 6.36001 8.95573 5.96134 9.69751 5.69207L10.23 2.99957H13.77L14.3025 5.66207C15.0384 5.9389 15.7229 6.3369 16.3275 6.83957L18.9075 5.99957L20.6775 8.99957L18.6375 10.7996C18.7762 11.5759 18.7762 12.3707 18.6375 13.1471L20.6775 14.9996L18.9075 17.9996Z" fill="#676767"/>
<path d="M12 16.5C11.11 16.5 10.24 16.2361 9.49994 15.7416C8.75991 15.2471 8.18314 14.5443 7.84254 13.7221C7.50195 12.8998 7.41283 11.995 7.58647 11.1221C7.7601 10.2492 8.18868 9.44736 8.81802 8.81802C9.44736 8.18868 10.2492 7.7601 11.1221 7.58647C11.995 7.41283 12.8998 7.50195 13.7221 7.84254C14.5443 8.18314 15.2471 8.75991 15.7416 9.49994C16.2361 10.24 16.5 11.11 16.5 12C16.506 12.5926 16.3937 13.1805 16.1697 13.7292C15.9457 14.2779 15.6145 14.7763 15.1954 15.1954C14.7763 15.6145 14.2779 15.9457 13.7292 16.1697C13.1805 16.3937 12.5926 16.506 12 16.5ZM12 9C11.6035 8.99077 11.2093 9.06205 10.8411 9.20954C10.473 9.35704 10.1386 9.57768 9.85812 9.85812C9.57768 10.1386 9.35704 10.473 9.20954 10.8411C9.06205 11.2093 8.99077 11.6035 9 12C8.99077 12.3965 9.06205 12.7907 9.20954 13.1589C9.35704 13.527 9.57768 13.8615 9.85812 14.1419C10.1386 14.4223 10.473 14.643 10.8411 14.7905C11.2093 14.938 11.6035 15.0092 12 15C12.3965 15.0092 12.7907 14.938 13.1589 14.7905C13.527 14.643 13.8615 14.4223 14.1419 14.1419C14.4223 13.8615 14.643 13.527 14.7905 13.1589C14.938 12.7907 15.0092 12.3965 15 12C15.0092 11.6035 14.938 11.2093 14.7905 10.8411C14.643 10.473 14.4223 10.1386 14.1419 9.85812C13.8615 9.57768 13.527 9.35704 13.1589 9.20954C12.7907 9.06205 12.3965 8.99077 12 9Z" fill="#676767"/>
</svg>
