<svg width="25" height="25" viewBox="0 0 25 25" fill="none" xmlns="http://www.w3.org/2000/svg">
<path d="M22.044 11.545C22.348 11.971 22.5 12.185 22.5 12.5C22.5 12.816 22.348 13.029 22.044 13.455C20.678 15.371 17.189 19.5 12.5 19.5C7.81 19.5 4.322 15.37 2.956 13.455C2.652 13.029 2.5 12.815 2.5 12.5C2.5 12.184 2.652 11.971 2.956 11.545C4.322 9.629 7.811 5.5 12.5 5.5C17.19 5.5 20.678 9.63 22.044 11.545Z" stroke="#C2C2C2" stroke-width="1.5" stroke-linecap="round" stroke-linejoin="round"/>
<path d="M15.5 12.5C15.5 11.7044 15.1839 10.9413 14.6213 10.3787C14.0587 9.81607 13.2956 9.5 12.5 9.5C11.7044 9.5 10.9413 9.81607 10.3787 10.3787C9.81607 10.9413 9.5 11.7044 9.5 12.5C9.5 13.2956 9.81607 14.0587 10.3787 14.6213C10.9413 15.1839 11.7044 15.5 12.5 15.5C13.2956 15.5 14.0587 15.1839 14.6213 14.6213C15.1839 14.0587 15.5 13.2956 15.5 12.5Z" stroke="#C2C2C2" stroke-width="1.5" stroke-linecap="round" stroke-linejoin="round"/>
</svg>
