<svg width="114" height="30" viewBox="0 0 114 30" fill="none" xmlns="http://www.w3.org/2000/svg">
<path fill-rule="evenodd" clip-rule="evenodd" d="M10.5878 0.984375C8.99151 0.985552 7.69959 2.27842 7.70077 3.87155C7.69959 5.46467 8.99269 6.75754 10.589 6.75872H13.4772V3.87272C13.4784 2.2796 12.1853 0.98673 10.5878 0.984375C10.589 0.984375 10.589 0.984375 10.5878 0.984375V0.984375ZM10.5878 8.68507H2.88823C1.29192 8.68625 -0.00117661 9.97912 3.22434e-06 11.5722C-0.00235644 13.1654 1.29074 14.4582 2.88705 14.4606H10.5878C12.1841 14.4594 13.4772 13.1665 13.4761 11.5734C13.4772 9.97912 12.1841 8.68625 10.5878 8.68507Z" fill="#ABABAB"/>
<path fill-rule="evenodd" clip-rule="evenodd" d="M28.8775 11.5722C28.8787 9.97912 27.5856 8.68625 25.9893 8.68507C24.393 8.68625 23.0999 9.97912 23.1011 11.5722V14.4606H25.9893C27.5856 14.4594 28.8787 13.1665 28.8775 11.5722ZM21.1768 11.5722V3.87155C21.1779 2.2796 19.886 0.98673 18.2897 0.984375C16.6934 0.985552 15.4003 2.27842 15.4015 3.87155V11.5722C15.3991 13.1654 16.6922 14.4582 18.2885 14.4606C19.8849 14.4594 21.1779 13.1665 21.1768 11.5722Z" fill="#ABABAB"/>
<path fill-rule="evenodd" clip-rule="evenodd" d="M18.2885 29.8602C19.8848 29.859 21.1779 28.5662 21.1767 26.973C21.1779 25.3799 19.8848 24.087 18.2885 24.0859H15.4003V26.973C15.3991 28.565 16.6922 29.8579 18.2885 29.8602ZM18.2885 22.1583H25.9893C27.5856 22.1572 28.8787 20.8643 28.8775 19.2712C28.8799 17.678 27.5868 16.3852 25.9905 16.3828H18.2897C16.6934 16.384 15.4003 17.6769 15.4015 19.27C15.4003 20.8643 16.6922 22.1572 18.2885 22.1583Z" fill="#ABABAB"/>
<path fill-rule="evenodd" clip-rule="evenodd" d="M0.000252577 19.2739C-0.000927256 20.867 1.29217 22.1599 2.88848 22.1611C4.4848 22.1599 5.77789 20.867 5.77671 19.2739V16.3867H2.88848C1.29217 16.3879 -0.000927256 17.6808 0.000252577 19.2739ZM7.70102 19.2739V26.9746C7.69866 28.5677 8.99176 29.8606 10.5881 29.8629C12.1844 29.8618 13.4775 28.5689 13.4763 26.9758V19.2762C13.4787 17.6831 12.1856 16.3903 10.5893 16.3879C8.99176 16.3879 7.69984 17.6808 7.70102 19.2739C7.70102 19.2751 7.70102 19.2739 7.70102 19.2739Z" fill="#ABABAB"/>
<path d="M37.3607 21.8962L40.0981 20.3019C41.3014 22.0667 42.8656 22.9491 44.7908 22.9491C45.7333 22.9491 46.4753 22.7686 47.0168 22.4076C47.5783 22.0266 47.859 21.5252 47.859 20.9036C47.859 20.4022 47.6284 19.961 47.1672 19.58C46.726 19.199 46.2547 18.9182 45.7534 18.7377C45.252 18.5372 44.5 18.2765 43.4973 17.9556C43.3168 17.8955 43.1864 17.8553 43.1062 17.8353C42.3843 17.5946 41.7726 17.364 41.2713 17.1434C40.79 16.9028 40.2786 16.5919 39.7371 16.2109C39.1957 15.8098 38.7846 15.3185 38.5038 14.7369C38.2231 14.1353 38.0827 13.4434 38.0827 12.6613C38.0827 11.1372 38.7244 9.91392 40.0079 8.99144C41.2913 8.06895 42.8856 7.6077 44.7908 7.6077C46.2146 7.6077 47.5582 7.98873 48.8216 8.75079C50.0851 9.49279 51.0276 10.4454 51.6493 11.6085L49.1225 13.1426C47.9393 11.5183 46.5054 10.7061 44.8209 10.7061C43.8984 10.7061 43.1864 10.8966 42.6851 11.2776C42.2038 11.6386 41.9631 12.1199 41.9631 12.7215C41.9631 13.2228 42.1737 13.6741 42.5948 14.0752C43.036 14.4562 43.4873 14.7369 43.9485 14.9174C44.4097 15.0979 45.0615 15.3285 45.9038 15.6093C46.1244 15.6695 46.2848 15.7196 46.3851 15.7597C49.9547 16.9028 51.7395 18.6274 51.7395 20.9336C51.7395 22.3575 51.1379 23.5708 49.9346 24.5735C48.7515 25.5561 47.0669 26.0474 44.881 26.0474C43.1965 26.0474 41.6924 25.6764 40.3688 24.9344C39.0653 24.1924 38.0626 23.1797 37.3607 21.8962Z" fill="#ABABAB"/>
<path d="M55.0484 25.506V0.929688H58.8387V25.506H55.0484Z" fill="#ABABAB"/>
<path d="M66.1183 20.6328C66.1183 21.2746 66.369 21.816 66.8703 22.2572C67.3917 22.6784 68.0736 22.8889 68.9159 22.8889C70.1191 22.8889 71.1419 22.4878 71.9841 21.6857C72.8465 20.8835 73.2776 19.8307 73.2776 18.5272V16.9329C72.3551 17.1535 71.2421 17.364 69.9386 17.5646C67.3917 17.9656 66.1183 18.9884 66.1183 20.6328ZM62.2679 20.9637C62.2679 17.6949 64.6945 15.6995 69.5476 14.9776C71.3123 14.7169 72.5557 14.4762 73.2776 14.2556V13.3231C73.2776 12.4808 72.9768 11.8191 72.3752 11.3378C71.7736 10.8565 70.9714 10.6158 69.9687 10.6158C68.0636 10.6158 66.4191 11.3979 65.0354 12.9621L62.7191 10.9768C63.6216 9.91392 64.6945 9.09171 65.9378 8.51014C67.2012 7.90851 68.5248 7.6077 69.9085 7.6077C72.4955 7.6077 74.3405 8.23941 75.4435 9.50282C76.5464 10.7462 77.0979 12.4909 77.0979 14.7369V25.506H73.3979V23.3401C73.037 24.0821 72.4053 24.7239 71.5028 25.2653C70.6205 25.7867 69.5776 26.0474 68.3744 26.0474C66.4693 26.0474 64.9752 25.5762 63.8923 24.6336C62.8094 23.6911 62.2679 22.4678 62.2679 20.9637Z" fill="#ABABAB"/>
<path d="M80.0158 16.8426C80.0158 14.0551 80.7578 11.8191 82.2418 10.1345C83.7459 8.44998 85.6811 7.6077 88.0475 7.6077C89.7721 7.6077 91.226 8.12911 92.4092 9.17192C93.5924 10.2147 94.3344 11.408 94.6352 12.7516L91.3865 13.654C91.1458 12.892 90.7347 12.2402 90.1531 11.6987C89.5716 11.1372 88.8797 10.8565 88.0775 10.8565C86.774 10.8565 85.7513 11.428 85.0093 12.5711C84.2873 13.7142 83.9263 15.138 83.9263 16.8426C83.9263 18.7277 84.3174 20.1916 85.0995 21.2345C85.8816 22.2773 86.8743 22.7987 88.0775 22.7987C88.9599 22.7987 89.732 22.4979 90.3938 21.8962C91.0756 21.2746 91.5469 20.5727 91.8076 19.7906L95.0564 20.7231C94.6753 22.1269 93.8431 23.3702 92.5596 24.4531C91.2762 25.516 89.7721 26.0474 88.0475 26.0474C85.6811 26.0474 83.7459 25.2152 82.2418 23.5507C80.7578 21.8662 80.0158 19.6301 80.0158 16.8426Z" fill="#ABABAB"/>
<path d="M97.9141 25.506V0.929688H101.704V15.0678L107.871 8.14916H112.654L106.247 15.2182L113.045 25.506H108.593L103.78 17.8955L101.704 20.1816V25.506H97.9141Z" fill="#ABABAB"/>
</svg>
