<svg width="18" height="18" viewBox="0 0 18 18" fill="none" xmlns="http://www.w3.org/2000/svg">
<path d="M4.83317 2.33341C4.83317 1.89139 5.00877 1.46746 5.32133 1.1549C5.63389 0.842343 6.05781 0.666748 6.49984 0.666748H11.4998C11.9419 0.666748 12.3658 0.842343 12.6783 1.1549C12.9909 1.46746 13.1665 1.89139 13.1665 2.33341V4.00008H16.4998C16.7208 4.00008 16.9328 4.08788 17.0891 4.24416C17.2454 4.40044 17.3332 4.6124 17.3332 4.83341C17.3332 5.05443 17.2454 5.26639 17.0891 5.42267C16.9328 5.57895 16.7208 5.66675 16.4998 5.66675H15.609L14.8865 15.7851C14.8566 16.2056 14.6684 16.5991 14.3599 16.8864C14.0514 17.1737 13.6456 17.3334 13.224 17.3334H4.77484C4.35329 17.3334 3.94739 17.1737 3.63891 16.8864C3.33042 16.5991 3.14227 16.2056 3.11234 15.7851L2.3915 5.66675H1.49984C1.27882 5.66675 1.06686 5.57895 0.910582 5.42267C0.754301 5.26639 0.666504 5.05443 0.666504 4.83341C0.666504 4.6124 0.754301 4.40044 0.910582 4.24416C1.06686 4.08788 1.27882 4.00008 1.49984 4.00008H4.83317V2.33341ZM6.49984 4.00008H11.4998V2.33341H6.49984V4.00008ZM4.0615 5.66675L4.77567 15.6667H13.2248L13.939 5.66675H4.0615ZM7.33317 7.33341C7.55418 7.33341 7.76615 7.42121 7.92243 7.57749C8.07871 7.73377 8.1665 7.94573 8.1665 8.16675V13.1667C8.1665 13.3878 8.07871 13.5997 7.92243 13.756C7.76615 13.9123 7.55418 14.0001 7.33317 14.0001C7.11216 14.0001 6.9002 13.9123 6.74392 13.756C6.58763 13.5997 6.49984 13.3878 6.49984 13.1667V8.16675C6.49984 7.94573 6.58763 7.73377 6.74392 7.57749C6.9002 7.42121 7.11216 7.33341 7.33317 7.33341ZM10.6665 7.33341C10.8875 7.33341 11.0995 7.42121 11.2558 7.57749C11.412 7.73377 11.4998 7.94573 11.4998 8.16675V13.1667C11.4998 13.3878 11.412 13.5997 11.2558 13.756C11.0995 13.9123 10.8875 14.0001 10.6665 14.0001C10.4455 14.0001 10.2335 13.9123 10.0772 13.756C9.92097 13.5997 9.83317 13.3878 9.83317 13.1667V8.16675C9.83317 7.94573 9.92097 7.73377 10.0772 7.57749C10.2335 7.42121 10.4455 7.33341 10.6665 7.33341Z" fill="#858585"/>
</svg>
