<svg width="81" height="87" viewBox="0 0 81 87" fill="none" xmlns="http://www.w3.org/2000/svg">
<g clip-path="url(#clip0_1469_2167)">
<path d="M61.0664 55.5C60.7166 55.5 60.4336 55.783 60.4336 56.1328V56.9794C60.4336 57.3292 60.7166 57.6123 61.0664 57.6123C61.4162 57.6123 61.6992 57.3292 61.6992 56.9794V56.1328C61.6992 55.783 61.4162 55.5 61.0664 55.5Z" fill="#3D3D3D"/>
<path d="M61.0664 58.918C60.7166 58.918 60.4336 59.201 60.4336 59.5508V60.9709H48.1469C47.7971 60.9709 47.5141 61.2539 47.5141 61.6037C47.5141 61.9535 47.7971 62.2365 48.1469 62.2365H61.0664C61.4162 62.2365 61.6992 61.9535 61.6992 61.6037V59.5508C61.6992 59.201 61.4162 58.918 61.0664 58.918Z" fill="#3D3D3D"/>
<path d="M26.0862 21.3301V26.0416H16.4531C15.7536 26.0416 15.1875 26.6076 15.1875 27.3072V36.5176V64.9941C15.1875 65.6937 15.7536 66.2598 16.4531 66.2598H64.5469C65.2464 66.2598 65.8125 65.6937 65.8125 64.9941V36.5176V27.3072C65.8125 26.6076 65.2464 26.0416 64.5469 26.0416H54.9138V21.3301C54.9138 18.1895 52.359 15.6348 49.2185 15.6348H31.7815C28.6409 15.6348 26.0862 18.1895 26.0862 21.3301ZM63.2812 63.7285H17.7187V43.9168C19.9446 46.8079 23.4293 48.6819 27.3518 48.6819H37.0022V51.4591C37.0022 52.1587 37.5683 52.7247 38.2678 52.7247H42.7321C43.4317 52.7247 43.9978 52.1587 43.9978 51.4591V48.6819H53.6481C57.5706 48.6819 61.0553 46.8079 63.2812 43.9168V63.7285ZM41.4665 50.1935H39.5335V44.6391H41.4665V50.1935ZM63.2812 28.5728V36.5176C63.2812 41.8297 58.9603 46.1507 53.6481 46.1507H43.9978V43.3735C43.9978 42.6739 43.4317 42.1078 42.7321 42.1078H38.2678C37.5683 42.1078 37.0022 42.6739 37.0022 43.3735V46.1507H27.3518C22.0397 46.1507 17.7187 41.8297 17.7187 36.5176V28.5728H26.0862V30.4713C26.0862 31.1708 26.6523 31.7369 27.3518 31.7369C28.0514 31.7369 28.6174 31.1708 28.6174 30.4713V28.5728H52.3825V30.4713C52.3825 31.1708 52.9486 31.7369 53.6481 31.7369C54.3477 31.7369 54.9138 31.1708 54.9138 30.4713V28.5728H63.2812ZM52.3825 21.3301V26.0416H28.6174V21.3301C28.6174 19.5849 30.0363 18.166 31.7815 18.166H49.2185C50.9636 18.166 52.3825 19.5849 52.3825 21.3301Z" fill="#3D3D3D"/>
<path d="M21.1646 30.293H19.899C19.5492 30.293 19.2662 30.576 19.2662 30.9258V37.0784C19.2662 37.4282 19.5492 37.7112 19.899 37.7112C20.2488 37.7112 20.5318 37.4282 20.5318 37.0784V31.5586H21.1646C21.5144 31.5586 21.7974 31.2756 21.7974 30.9258C21.7974 30.576 21.5144 30.293 21.1646 30.293Z" fill="#3D3D3D"/>
<path d="M51.6088 43.9279C51.259 43.9279 50.976 44.2109 50.976 44.5607C50.976 44.9105 51.259 45.1935 51.6088 45.1935H54.0894C54.6023 45.1935 55.1214 45.1453 55.6344 45.0489C55.978 44.9847 56.2041 44.6547 56.1399 44.3111C56.0756 43.9662 55.7382 43.7425 55.402 43.8055C54.9657 43.8871 54.5245 43.9279 54.0894 43.9279H51.6088Z" fill="#3D3D3D"/>
<path d="M57.9505 44.1426C58.0605 44.1426 58.1705 44.1142 58.2706 44.0549C60.792 42.5754 62.358 39.8415 62.358 36.9221V35.3203C62.358 34.9705 62.0749 34.6875 61.7251 34.6875C61.3754 34.6875 61.0923 34.9705 61.0923 35.3203V36.9221C61.0923 39.3953 59.7661 41.7102 57.6304 42.9647C57.3288 43.1415 57.2275 43.5283 57.4055 43.8299C57.5229 44.0314 57.7342 44.1426 57.9505 44.1426Z" fill="#3D3D3D"/>
<path d="M37.8278 53.3214H35.8589V50.5801C35.8589 50.2303 35.5759 49.9473 35.2261 49.9473C34.8764 49.9473 34.5933 50.2303 34.5933 50.5801V53.9543C34.5933 54.304 34.8764 54.5871 35.2261 54.5871H37.8278C38.1776 54.5871 38.4606 54.304 38.4606 53.9543C38.4606 53.6045 38.1776 53.3214 37.8278 53.3214Z" fill="#3D3D3D"/>
</g>
<defs>
<clipPath id="clip0_1469_2167">
<rect width="81" height="86.0625" fill="white" transform="translate(0 0.447266)"/>
</clipPath>
</defs>
</svg>
