<svg width="19" height="19" viewBox="0 0 19 19" fill="none" xmlns="http://www.w3.org/2000/svg">
<path d="M9.71433 15.2704L14.8843 18.3904C15.2643 18.6204 15.7343 18.2804 15.6343 17.8504L14.2643 11.9704L18.8243 8.02041C19.1543 7.73041 18.9843 7.18041 18.5343 7.14041L12.5243 6.6304L10.1743 1.0904C10.1366 0.999463 10.0728 0.921743 9.9909 0.867064C9.90903 0.812386 9.81279 0.783203 9.71433 0.783203C9.61588 0.783203 9.51963 0.812386 9.43776 0.867064C9.35588 0.921743 9.29205 0.999463 9.25433 1.0904L6.90433 6.6304L0.894331 7.14041C0.795894 7.14886 0.702168 7.18629 0.624987 7.24797C0.547805 7.30966 0.490627 7.39282 0.460671 7.48697C0.430714 7.58112 0.429322 7.68203 0.45667 7.77697C0.484018 7.87191 0.53888 7.95662 0.614331 8.02041L5.17433 11.9704L3.80433 17.8504C3.70433 18.2804 4.17433 18.6204 4.55433 18.3904L9.71433 15.2704Z" fill="#F98416"/>
</svg>
