<svg width="16" height="20" viewBox="0 0 16 20" fill="none" xmlns="http://www.w3.org/2000/svg">
<path d="M1.97078 5.88745C1.68428 4.00045 3.01478 2.30545 5.04728 1.68445C5.40797 1.57492 5.79682 1.60666 6.13497 1.77323C6.47313 1.9398 6.73528 2.22874 6.86828 2.58145L7.52078 4.32145C7.62582 4.60137 7.64481 4.90629 7.57532 5.19708C7.50583 5.48787 7.35103 5.75127 7.13078 5.95345L5.18978 7.73095C5.09398 7.81866 5.02261 7.92975 4.98264 8.05333C4.94267 8.17691 4.93548 8.30875 4.96178 8.43595L4.97978 8.51395L5.02628 8.70895C5.26827 9.65622 5.63604 10.5668 6.11978 11.4165C6.64796 12.3186 7.30261 13.1404 8.06378 13.8569L8.12378 13.9109C8.22068 13.997 8.33821 14.0564 8.46492 14.0835C8.59163 14.1106 8.72319 14.1043 8.84678 14.0654L11.3563 13.2749C11.6415 13.1854 11.9469 13.1831 12.2334 13.2684C12.5199 13.3536 12.7744 13.5225 12.9643 13.7534L14.1523 15.195C14.6473 15.7949 14.5873 16.6769 14.0188 17.2064C12.4633 18.6569 10.3243 18.9539 8.83628 17.7584C7.01155 16.288 5.47381 14.4934 4.30028 12.4649C3.11526 10.4391 2.32585 8.20738 1.97078 5.88745ZM6.53378 8.53495L8.14178 7.05895C8.58253 6.65475 8.89243 6.12805 9.03168 5.54646C9.17093 4.96487 9.13318 4.35493 8.92328 3.79495L8.27228 2.05495C8.00521 1.34511 7.47795 0.763542 6.7976 0.428383C6.11725 0.0932242 5.33484 0.0296057 4.60928 0.25045C2.08478 1.02295 0.0582786 3.28645 0.487279 6.11395C0.787279 8.08795 1.47878 10.599 3.00428 13.221C4.27045 15.4081 5.9292 17.343 7.89728 18.9284C10.1293 20.7209 13.1083 20.1089 15.0433 18.3059C15.5969 17.7904 15.933 17.0831 15.9829 16.3282C16.0328 15.5733 15.7928 14.8279 15.3118 14.2439L14.1238 12.8009C13.7437 12.3397 13.2346 12.0024 12.6616 11.8324C12.0886 11.6625 11.4779 11.6675 10.9078 11.8469L8.82428 12.5024C8.28629 11.9478 7.81509 11.3321 7.42028 10.6679C7.0393 9.99628 6.74208 9.28044 6.53528 8.53645" fill="#676767"/>
</svg>
