<svg width="25" height="25" viewBox="0 0 25 25" fill="none" xmlns="http://www.w3.org/2000/svg">
<path d="M12.25 23C10.1733 23 8.14323 22.3842 6.41652 21.2304C4.6898 20.0767 3.34399 18.4368 2.54927 16.5182C1.75455 14.5996 1.54661 12.4884 1.95176 10.4516C2.3569 8.41476 3.35693 6.54383 4.82538 5.07538C6.29383 3.60693 8.16476 2.6069 10.2016 2.20176C12.2384 1.79661 14.3496 2.00455 16.2682 2.79927C18.1868 3.59399 19.8267 4.9398 20.9804 6.66652C22.1342 8.39323 22.75 10.4233 22.75 12.5C22.75 15.2848 21.6438 17.9555 19.6746 19.9246C17.7055 21.8938 15.0348 23 12.25 23ZM12.25 3.5C10.47 3.5 8.72992 4.02785 7.24987 5.01678C5.76983 6.00571 4.61628 7.41132 3.93509 9.05585C3.2539 10.7004 3.07567 12.51 3.42294 14.2558C3.7702 16.0016 4.62737 17.6053 5.88604 18.864C7.14472 20.1226 8.74836 20.9798 10.4942 21.3271C12.24 21.6743 14.0496 21.4961 15.6942 20.8149C17.3387 20.1337 18.7443 18.9802 19.7332 17.5001C20.7222 16.0201 21.25 14.28 21.25 12.5C21.25 10.1131 20.3018 7.82387 18.614 6.13604C16.9261 4.44822 14.637 3.5 12.25 3.5Z" fill="#858585"/>
<path d="M15.6925 17L11.5 12.8075V5.75H13V12.185L16.75 15.9425L15.6925 17Z" fill="#858585"/>
</svg>
