<svg width="125" height="124" viewBox="0 0 125 124" fill="none" xmlns="http://www.w3.org/2000/svg">
<path d="M72.9146 20.8289L86.7363 11.4435C87.3983 10.9936 88.2996 11.1658 88.7489 11.8283L103.875 34.1071C104.325 34.7689 104.152 35.6703 103.49 36.1196L92.2779 43.73" stroke="#D16805" stroke-width="1.7" stroke-linecap="round" stroke-linejoin="round"/>
<path d="M73.7405 24.2729L85.8557 16.046C86.5176 15.5961 87.4189 15.7685 87.8682 16.4308L96.1693 28.6545C96.6193 29.3163 96.4469 30.2177 95.7846 30.667L78.425 42.4554" stroke="#D16805" stroke-width="1.7" stroke-linecap="round" stroke-linejoin="round"/>
<path d="M74.7281 32.9484L75.6802 32.3023C76.5537 31.7737 76.5273 30.4978 75.6328 30.0056C75.175 29.7537 74.6121 29.7941 74.1949 30.1086C74.1008 30.1737 74.0154 30.2506 73.9409 30.3374" stroke="#D16805" stroke-width="1.7" stroke-linecap="round" stroke-linejoin="round"/>
<path d="M79.4395 24.8496C79.4395 26.8482 81.603 28.0973 83.3338 27.098C84.1371 26.6342 84.632 25.7771 84.632 24.8496C84.632 22.851 82.4684 21.6019 80.7375 22.6012C79.9343 23.065 79.4395 23.9221 79.4395 24.8496Z" stroke="#D16805" stroke-width="1.7" stroke-linecap="round" stroke-linejoin="round"/>
<path d="M38.274 42.4558L33.2241 22.9083L40.4454 12.2145L62.6321 6.47544C63.4619 6.26122 64.3082 6.75988 64.5229 7.58937L73.5354 42.4558" stroke="#D16805" stroke-width="1.7" stroke-linecap="round" stroke-linejoin="round"/>
<path d="M41.4749 36.2354L65.2568 30.085" stroke="#D16805" stroke-width="1.7" stroke-linecap="round" stroke-linejoin="round"/>
<path d="M42.7878 41.3135L66.5698 35.1631" stroke="#D16805" stroke-width="1.7" stroke-linecap="round" stroke-linejoin="round"/>
<path d="M55.6843 43.3959L67.8827 40.2412" stroke="#D16805" stroke-width="1.7" stroke-linecap="round" stroke-linejoin="round"/>
<path d="M67.9346 108.089C60.1716 108.259 52.4062 107.881 44.6963 106.959C42.2703 106.654 40.4015 104.671 40.2406 102.231L36.4501 48.4187C36.3804 47.4298 37.1638 46.5891 38.1553 46.5889H89.1916C90.183 46.5891 90.9665 47.4298 90.8968 48.4187L88.7313 79.2126" stroke="#D16805" stroke-width="1.7" stroke-linecap="round" stroke-linejoin="round"/>
<path d="M63.6735 96.3245C62.5855 96.3236 61.7039 95.4415 61.7039 94.3536V56.7453C61.6623 55.2287 63.2781 54.2357 64.6125 54.9579C65.2658 55.3116 65.6648 56.0027 65.6444 56.7453V94.3536C65.6444 95.4421 64.762 96.3245 63.6735 96.3245Z" stroke="#D16805" stroke-width="1.7" stroke-linecap="round" stroke-linejoin="round"/>
<path d="M76.7156 79.1995L78.9672 56.643C79.1576 55.1377 80.906 54.403 82.1144 55.3205C82.6456 55.7239 82.9368 56.3684 82.8883 57.0336L80.6604 79.2886" stroke="#D16805" stroke-width="1.7" stroke-linecap="round" stroke-linejoin="round"/>
<path d="M50.3522 96.2221C49.2698 96.33 48.3049 95.54 48.197 94.4577L44.4602 57.0291C44.3098 55.5205 45.8489 54.4148 47.2306 55.0389C47.8719 55.3287 48.3099 55.9384 48.3796 56.6385L52.1166 94.067C52.2236 95.1492 51.434 96.1135 50.3522 96.2221Z" stroke="#D16805" stroke-width="1.7" stroke-linecap="round" stroke-linejoin="round"/>
<path d="M40.9016 20.811L33.2183 22.9082L40.4396 12.2144L42.0422 18.8832C42.2454 19.7285 41.7403 20.5823 40.9016 20.811Z" stroke="#D16805" stroke-width="1.7" stroke-linecap="round" stroke-linejoin="round"/>
<path d="M121.861 73.025C122.067 73.7988 121.605 74.5922 120.83 74.7954L104.949 78.9883C104.175 79.193 103.381 78.7315 103.177 77.9576L98.7878 61.3227C98.585 60.549 99.0457 59.7569 99.8186 59.5507L115.702 55.3639C116.475 55.1594 117.268 55.621 117.472 56.3946L121.861 73.025Z" stroke="#D16805" stroke-width="1.7" stroke-linecap="round" stroke-linejoin="round"/>
<path d="M102.023 61.9947L114.979 58.5781L118.036 70.17L105.08 73.5866L102.023 61.9947Z" stroke="#D16805" stroke-width="1.7" stroke-linecap="round" stroke-linejoin="round"/>
<path d="M6.54013 30.6449C5.89147 30.9777 5.54185 31.7 5.68314 32.4154L7.70316 42.6071C7.8625 43.411 7.32383 44.1868 6.51496 44.3182C6.14202 44.3803 5.77926 44.4927 5.43664 44.6523C2.59168 45.991 2.26256 49.9074 4.84432 51.7021C5.79989 52.3662 6.99324 52.5912 8.12496 52.3208C10.2886 51.7383 11.6163 49.5623 11.1445 47.3719L9.06518 36.889C8.93469 36.2306 9.27326 35.5688 9.8835 35.2893L18.6257 31.2791C19.4781 30.8888 20.4709 31.3988 20.6502 32.3189L21.4864 36.54C21.6457 37.344 21.1072 38.1203 20.2981 38.2525C19.9253 38.3139 19.5625 38.4257 19.2199 38.5852C16.3725 39.9187 16.0366 43.8346 18.6153 45.6337C19.5734 46.3022 20.7722 46.5285 21.9082 46.255C24.0719 45.6725 25.3994 43.4965 24.9277 41.3061L21.7373 25.1881C21.5256 24.124 20.3546 23.5581 19.3892 24.0533L6.54013 30.6449Z" stroke="#D16805" stroke-width="1.7" stroke-linecap="round" stroke-linejoin="round"/>
<path d="M18.8469 77.5406L16.6309 76.9196C15.0892 76.489 13.4902 77.3892 13.0588 78.9307L12.7782 79.9348C12.3463 81.4756 13.2454 83.0748 14.7862 83.5068L17.0037 84.1261" stroke="#D16805" stroke-width="1.7" stroke-linecap="round" stroke-linejoin="round"/>
<path d="M16.6056 110.643L16.1229 110.507C15.4092 110.293 14.9109 109.648 14.8828 108.903C13.6986 89.8418 18.9913 70.9397 29.9017 55.2647C30.3123 54.6431 31.0725 54.3508 31.7939 54.5369" stroke="#D16805" stroke-width="1.7" stroke-linecap="round" stroke-linejoin="round"/>
<path d="M16.6121 110.677L32.3032 54.7124L35.8103 55.6957C36.6002 55.9172 37.0611 56.7371 36.8396 57.527L21.9505 110.631C21.7291 111.421 20.9092 111.882 20.1192 111.661L16.6121 110.677Z" stroke="#D16805" stroke-width="1.7" stroke-linecap="round" stroke-linejoin="round"/>
<path d="M101.031 117.573H77.6497C77.1632 117.578 76.7042 117.347 76.4184 116.953C69.2104 106.427 69.6649 95.6339 72.282 84.7648C72.4588 84.1308 73.0438 83.698 73.7018 83.7147H96.8852C97.769 83.6763 98.4579 84.4718 98.2932 85.341C96.1426 95.3101 97.5936 105.429 102.348 115.685C102.743 116.608 102.033 117.625 101.031 117.573Z" stroke="#D16805" stroke-width="1.7" stroke-linecap="round" stroke-linejoin="round"/>
<path d="M76.3323 99.4229H92.5187" stroke="#D16805" stroke-width="1.7" stroke-linecap="round" stroke-linejoin="round"/>
<path d="M77.6897 105.716H93.8774" stroke="#D16805" stroke-width="1.7" stroke-linecap="round" stroke-linejoin="round"/>
<path d="M79.6829 112.01H95.8693" stroke="#D16805" stroke-width="1.7" stroke-linecap="round" stroke-linejoin="round"/>
<path d="M96.0518 28.4826L87.5591 26.5012C86.986 26.3677 86.4088 26.7066 86.2461 27.2722L84.1549 34.5499L77.9732 36.304C77.6303 36.3973 77.3536 36.6508 77.2306 36.9842L76.488 39.0071" stroke="#D16805" stroke-width="1.7" stroke-linecap="round" stroke-linejoin="round"/>
</svg>
