<svg width="59" height="46" viewBox="0 0 59 46" fill="none" xmlns="http://www.w3.org/2000/svg">
<g clip-path="url(#clip0_499_2989)">
<path d="M8.49053 44.9791H50.5095C55.5834 44.9791 58.1323 42.4551 58.1323 37.4546V7.81353C58.1323 2.8131 55.5834 0.289062 50.5095 0.289062H8.49053C3.44143 0.290098 0.867676 2.79031 0.867676 7.81353V37.4557C0.867676 42.4799 3.44143 44.9791 8.49053 44.9791ZM19.0735 23.2301C15.7726 23.2301 13.0777 20.5362 13.0777 17.2344C13.0777 13.9574 15.7726 11.2386 19.0745 11.2386C22.3515 11.2386 25.0454 13.9574 25.0454 17.2354C25.0454 20.5362 22.3515 23.2301 19.0735 23.2301ZM8.53921 41.0713C6.20885 41.0713 4.77646 39.6628 4.77646 37.2837V35.8027L12.2284 29.2984C13.2962 28.3517 14.4614 27.866 15.5541 27.866C16.7193 27.866 17.957 28.3517 19.0258 29.3471L23.6865 33.521L35.2658 23.2291C36.4786 22.1613 37.8137 21.6755 39.1736 21.6755C40.5086 21.6755 41.8923 22.1851 43.0575 23.254L54.2225 33.5945V37.3335C54.2225 39.6638 52.7673 41.0713 50.4608 41.0713H8.53921Z" fill="#C2C2C2"/>
</g>
<defs>
<clipPath id="clip0_499_2989">
<rect width="58" height="45.2683" fill="white" transform="translate(0.5)"/>
</clipPath>
</defs>
</svg>
